<svg width="15" height="15" viewBox="0 0 15 15" fill="none" xmlns="http://www.w3.org/2000/svg">
<g clip-path="url(#clip0_1450_4380)">
<path d="M16 0H-1C-2.10457 0 -3 0.89543 -3 2V13C-3 14.1046 -2.10457 15 -1 15H16C17.1046 15 18 14.1046 18 13V2C18 0.89543 17.1046 0 16 0Z" fill="#F93939"/>
<path fill-rule="evenodd" clip-rule="evenodd" d="M-3 0H4V15H-3V0Z" fill="#151515"/>
<path fill-rule="evenodd" clip-rule="evenodd" d="M11 0H18V15H11V0Z" fill="#249F58"/>
<path fill-rule="evenodd" clip-rule="evenodd" d="M7.5 10C8.88 10 10 8.88 10 7.5C10 6.12 8.88 5 7.5 5C6.12 5 5 6.12 5 7.5C5 8.88 6.12 10 7.5 10ZM7.5 9C8.328 9 9 8.105 9 7C9 5.895 8.328 5 7.5 5C6.672 5 6 5.895 6 7C6 8.105 6.672 9 7.5 9ZM7.5 8C7.776 8 8 7.552 8 7C8 6.448 7.776 6 7.5 6C7.224 6 7 6.448 7 7C7 7.552 7.224 8 7.5 8Z" fill="white"/>
</g>
<defs>
<clipPath id="clip0_1450_4380">
<rect width="15" height="15" rx="7.5" fill="white"/>
</clipPath>
</defs>
</svg>
