<svg width="15" height="15" viewBox="0 0 15 15" fill="none" xmlns="http://www.w3.org/2000/svg">
<g clip-path="url(#clip0_1450_4379)">
<rect width="15" height="15" rx="7.5" fill="#F93939"/>
<path d="M16 0H-1C-2.10457 0 -3 0.89543 -3 2V13C-3 14.1046 -2.10457 15 -1 15H16C17.1046 15 18 14.1046 18 13V2C18 0.89543 17.1046 0 16 0Z" fill="#F93939"/>
<path fill-rule="evenodd" clip-rule="evenodd" d="M7.5 4.57538L6.2466 3.73978L5.411 4.57538H6.2466L5.411 5.41098L3.73979 4.57538V8.75339L6.2466 7.91778L5.411 9.58899H4.57539L5.411 10.4246L6.2466 9.58899L7.5 11.2602V4.57538ZM8.7534 3.73978L9.589 4.57538H8.7534L9.589 5.41098L11.2602 4.57538V8.75339L8.7534 7.91778L9.589 9.58899H10.4246L9.589 10.4246L8.7534 9.58899L7.5 11.2602V4.57538L8.7534 3.73978Z" fill="#151515"/>
</g>
<defs>
<clipPath id="clip0_1450_4379">
<rect width="15" height="15" rx="7.5" fill="white"/>
</clipPath>
</defs>
</svg>
