<svg width="15" height="15" viewBox="0 0 15 15" fill="none" xmlns="http://www.w3.org/2000/svg">
<g clip-path="url(#clip0_1450_4377)">
<rect width="15" height="15" rx="7.5" fill="#F93939"/>
<path d="M16 0H-1C-2.10457 0 -3 0.89543 -3 2V13C-3 14.1046 -2.10457 15 -1 15H16C17.1046 15 18 14.1046 18 13V2C18 0.89543 17.1046 0 16 0Z" fill="#F93939"/>
<path fill-rule="evenodd" clip-rule="evenodd" d="M-3 8H18V15H-3V8Z" fill="#151515"/>
<path fill-rule="evenodd" clip-rule="evenodd" d="M9.8805 9.13667C10.3145 8.55467 10.5705 7.83267 10.5705 7.05067C10.5705 5.58367 9.6675 4.32767 8.3875 3.80667L7.7825 4.65367C8.8165 4.96067 9.5705 5.91767 9.5705 7.05067C9.5705 7.64467 9.3635 8.19067 9.0175 8.61867L5.5705 6.55067L8.2665 9.24667C7.9115 9.44067 7.5035 9.55067 7.0705 9.55067C6.2305 9.55067 5.4875 9.13667 5.0345 8.50067L4.4295 9.34767C5.0705 10.0847 6.0155 10.5507 7.0705 10.5507C7.7805 10.5507 8.4425 10.3387 8.9945 9.97467L9.5705 10.5507L10.5705 9.55067L9.8805 9.13667ZM5.5705 4.55067H6.5705V5.55067H5.5705V4.55067Z" fill="#FFDA2C"/>
</g>
<defs>
<clipPath id="clip0_1450_4377">
<rect width="15" height="15" rx="7.5" fill="white"/>
</clipPath>
</defs>
</svg>
