<svg width="15" height="15" viewBox="0 0 15 15" fill="none" xmlns="http://www.w3.org/2000/svg">
<g clip-path="url(#clip0_1450_4359)">
<rect width="15" height="15" rx="7.5" fill="#FFDA2C"/>
<path d="M16 0H-1C-2.10457 0 -3 0.89543 -3 2V13C-3 14.1046 -2.10457 15 -1 15H16C17.1046 15 18 14.1046 18 13V2C18 0.89543 17.1046 0 16 0Z" fill="#FFDA2C"/>
<path fill-rule="evenodd" clip-rule="evenodd" d="M-3 0L18 14L17.877 15.1L-3 15V0Z" fill="#1A47B8"/>
<path fill-rule="evenodd" clip-rule="evenodd" d="M-2 3H-1V4H-2V3ZM1 5H2V6H1V5ZM4 7H5V8H4V7ZM7 9H8V10H7V9ZM10 11H11V12H10V11ZM13 13H14V14H13V13Z" fill="white"/>
</g>
<defs>
<clipPath id="clip0_1450_4359">
<rect width="15" height="15" rx="7.5" fill="white"/>
</clipPath>
</defs>
</svg>
