<svg width="15" height="15" viewBox="0 0 15 15" fill="none" xmlns="http://www.w3.org/2000/svg">
<g clip-path="url(#clip0_1450_4352)">
<path d="M16 0H-1C-2.10457 0 -3 0.89543 -3 2V13C-3 14.1046 -2.10457 15 -1 15H16C17.1046 15 18 14.1046 18 13V2C18 0.89543 17.1046 0 16 0Z" fill="#F93939"/>
<path fill-rule="evenodd" clip-rule="evenodd" d="M-3 0L7 8L-3 15V0ZM18 0L8 8L18 15V0Z" fill="#00B731"/>
<path fill-rule="evenodd" clip-rule="evenodd" d="M4.158 6.456L-3 1.5V0H-1.5L5.347 4.74C5.94 4.276 6.687 4 7.5 4C8.312 4 9.06 4.276 9.653 4.74L16.5 0H18V1.5L10.842 6.456C10.945 6.786 11 7.136 11 7.5C11 7.864 10.945 8.214 10.842 8.544L18 13.5V15H16.5L9.653 10.26C9.059 10.724 8.313 11 7.5 11C6.688 11 5.94 10.724 5.347 10.26L-1.5 15H-3V13.5L4.158 8.544C4.055 8.214 4 7.864 4 7.5C4 7.136 4.055 6.786 4.158 6.456Z" fill="white"/>
<path fill-rule="evenodd" clip-rule="evenodd" d="M7 6H8V7H7V6ZM8 8H9V9H8V8ZM6 8H7V9H6V8Z" fill="#AF010D"/>
</g>
<defs>
<clipPath id="clip0_1450_4352">
<rect width="15" height="15" rx="7.5" fill="white"/>
</clipPath>
</defs>
</svg>
