<svg width="15" height="15" viewBox="0 0 15 15" fill="none" xmlns="http://www.w3.org/2000/svg">
<g clip-path="url(#clip0_1450_4360)">
<path d="M16 0H-1C-2.10457 0 -3 0.89543 -3 2V13C-3 14.1046 -2.10457 15 -1 15H16C17.1046 15 18 14.1046 18 13V2C18 0.89543 17.1046 0 16 0Z" fill="#FFDA2C"/>
<path fill-rule="evenodd" clip-rule="evenodd" d="M6 7H7V8H6V7ZM8 7H9V8H8V7Z" fill="#03BCDB"/>
<path fill-rule="evenodd" clip-rule="evenodd" d="M9 7H10V9H9V7ZM8 6H9V7H8V6ZM6 6H7V7H6V6ZM5 7H6V9H5V7Z" fill="#AF010D"/>
<path fill-rule="evenodd" clip-rule="evenodd" d="M7 8H8V9H7V8Z" fill="#249F58"/>
<path fill-rule="evenodd" clip-rule="evenodd" d="M7 6H8V7H7V6Z" fill="#151515"/>
<path fill-rule="evenodd" clip-rule="evenodd" d="M8 8H9V9H8V8ZM6 8H7V9H6V8Z" fill="#D4AF2C"/>
<path fill-rule="evenodd" clip-rule="evenodd" d="M7 7H8V8H7V7Z" fill="#249F58"/>
<path fill-rule="evenodd" clip-rule="evenodd" d="M-3 10H18V15H-3V10Z" fill="#249F58"/>
<path fill-rule="evenodd" clip-rule="evenodd" d="M-3 0H18V5H-3V0Z" fill="#F93939"/>
</g>
<defs>
<clipPath id="clip0_1450_4360">
<rect width="15" height="15" rx="7.5" fill="white"/>
</clipPath>
</defs>
</svg>
