<svg width="15" height="15" viewBox="0 0 15 15" fill="none" xmlns="http://www.w3.org/2000/svg">
<rect width="15" height="15" rx="7.5" fill="white"/>
<path d="M9.85435 6.02993C9.76219 5.22021 9.05734 4.96054 8.17205 4.89854L8.1524 3.77351L7.46759 3.78557L7.48677 4.88096C7.30672 4.88409 7.12278 4.89087 6.93999 4.89771L6.92085 3.79504L6.23644 3.80698L6.25585 4.9317C6.10767 4.93733 5.96208 4.94266 5.82013 4.9452L5.81998 4.94169L4.87548 4.95783L4.88843 5.68923C4.88843 5.68923 5.39396 5.67079 5.38572 5.6802C5.66306 5.67542 5.75618 5.83491 5.78493 5.9734L5.80734 7.25506C5.82646 7.25481 5.85144 7.25517 5.87982 7.2586C5.85698 7.25902 5.83263 7.25932 5.80747 7.25999L5.83863 9.05548C5.82802 9.14298 5.77914 9.28311 5.58533 9.2868C5.59426 9.2944 5.08755 9.29538 5.08755 9.29538L4.96573 10.1156L5.85693 10.1C6.02279 10.0974 6.18601 10.0973 6.34626 10.0955L6.36643 11.2333L7.0505 11.2215L7.03079 10.0956C7.21871 10.0963 7.40046 10.0946 7.57796 10.0913L7.59722 11.212L8.28206 11.1999L8.2624 10.0641C9.41258 9.97791 10.2133 9.67383 10.2945 8.59088C10.36 7.71891 9.94375 7.33763 9.28751 7.1921C9.68105 6.98297 9.92282 6.6224 9.85435 6.02993ZM8.93873 8.47965C8.95394 9.32998 7.49629 9.25869 7.03218 9.26723L7.00605 7.75962C7.47028 7.75166 8.92328 7.59274 8.93873 8.47965ZM8.58308 6.35819C8.59639 7.13179 7.38057 7.06273 6.99398 7.0695L6.97017 5.70222C7.35676 5.69545 8.56889 5.55136 8.58308 6.35819Z" fill="#F7931A"/>
</svg>
