<svg width="15" height="15" viewBox="0 0 15 15" fill="none" xmlns="http://www.w3.org/2000/svg">
<g clip-path="url(#clip0_1450_4365)">
<rect width="15" height="15" rx="7.5" fill="#F93939"/>
<path d="M19.3097 0H2.30972C1.20515 0 0.309719 0.89543 0.309719 2V13C0.309719 14.1046 1.20515 15 2.30972 15H19.3097C20.4143 15 21.3097 14.1046 21.3097 13V2C21.3097 0.89543 20.4143 0 19.3097 0Z" fill="#F93939"/>
<path fill-rule="evenodd" clip-rule="evenodd" d="M3.30972 0L5.30972 1.5L3.30972 3V0ZM3.30972 3L5.30972 4.5L3.30972 6V3ZM3.30972 6L5.30972 7.5L3.30972 9V6ZM3.30972 9L5.30972 10.5L3.30972 12V9ZM3.30972 12L5.30972 13.5L3.30972 15V12ZM2.30972 0L0.309719 1.5L2.30972 3V0ZM2.30972 3L0.309719 4.5L2.30972 6V3ZM2.30972 6L0.309719 7.5L2.30972 9V6ZM2.30972 9L0.309719 10.5L2.30972 12V9ZM2.30972 12L0.309719 13.5L2.30972 15V12ZM2.30972 0H3.30972V2H2.30972V0ZM2.30972 13H3.30972V15H2.30972V13ZM2.30972 5H3.30972V7H2.30972V5ZM2.30972 3H3.30972V4H2.30972V3ZM2.30972 11H3.30972V12H2.30972V11ZM2.30972 8H3.30972V10H2.30972V8Z" fill="white"/>
<path fill-rule="evenodd" clip-rule="evenodd" d="M5.30972 10.3378H21.3097V15H5.30972V10.3378Z" fill="#249F58"/>
</g>
<defs>
<clipPath id="clip0_1450_4365">
<rect width="15" height="15" rx="7.5" fill="white"/>
</clipPath>
</defs>
</svg>
