<svg width="15" height="15" viewBox="0 0 15 15" fill="none" xmlns="http://www.w3.org/2000/svg">
<rect width="15" height="15" rx="7.5" fill="#F7931A"/>
<path fill-rule="evenodd" clip-rule="evenodd" d="M5.49746 10.6663H7.55339H7.55344C7.55344 10.6663 10.4442 10.9125 10.4442 7.6013C10.4442 4.41848 7.8044 4.42977 7.2942 4.43195C7.28225 4.432 7.27148 4.43205 7.26193 4.43205H5.4974V7.20915H4.77274V7.8894H5.49746V10.6663ZM6.65545 5.5844H7.46658C7.76996 5.5844 9.29628 5.70846 9.29872 7.62375C9.30113 9.51623 7.76226 9.51427 7.5147 9.51396C7.51172 9.51395 7.50892 9.51395 7.50632 9.51395H6.65545V7.88935H7.93159V7.20911H6.65545V5.5844Z" fill="white"/>
</svg>
