<svg width="15" height="15" viewBox="0 0 15 15" fill="none" xmlns="http://www.w3.org/2000/svg">
<circle cx="7.5" cy="7.5" r="7.5" fill="#0052B5"/>
<path d="M7.46173 4.45559L6.80021 4.79047L7.01797 4.1262L6.57366 3.68628L7.23683 3.68298L7.49755 2.99621L7.78947 3.68023L8.34212 3.67749L7.9022 4.1218L8.12656 4.78387L7.46173 4.45559Z" fill="#FFDB44"/>
<path d="M7.46173 10.686L6.80021 10.3512L7.01797 11.0154L6.57366 11.4554L7.23683 11.4587L7.49755 12.1454L7.78947 11.4614L8.34212 11.4641L7.9022 11.0198L8.12656 10.3578L7.46173 10.686Z" fill="#FFDB44"/>
<path d="M10.5345 7.56048L10.0693 6.98307L10.7644 7.05791L11.1023 6.53182L11.2434 7.17981L11.9694 7.292L11.361 7.7198L11.4787 8.25979L10.9526 7.9219L10.3516 8.27904L10.5345 7.56048Z" fill="#FFDB44"/>
<path d="M9.71352 5.49759L8.98593 5.35487L9.56614 4.96496L9.48629 4.34482L10.0113 4.75003L10.6392 4.36879L10.4488 5.08771L10.8863 5.42539L10.2661 5.50524L10.0359 6.1653L9.71352 5.49759Z" fill="#FFDB44"/>
<path d="M9.72327 9.65696L10.0393 8.98624L10.2758 9.6441L10.8966 9.7181L10.3755 10.1282L10.5919 10.8303L9.9412 10.47L9.50692 10.8118L9.58091 10.191L8.99705 9.80653L9.72327 9.65696Z" fill="#FFDB44"/>
<path d="M10.5345 7.56048L10.0693 6.98307L10.7644 7.05791L11.1023 6.53182L11.2434 7.17981L11.9694 7.292L11.361 7.7198L11.4787 8.25979L10.9526 7.9219L10.3516 8.27904L10.5345 7.56048Z" fill="#FFDB44"/>
<path d="M4.48595 7.56048L4.95109 6.98307L4.25606 7.05791L3.91816 6.53182L3.77702 7.17981L3.05104 7.292L3.65939 7.7198L3.54177 8.25979L4.06786 7.9219L4.6688 8.27904L4.48595 7.56048Z" fill="#FFDB44"/>
<path d="M5.30691 5.49759L6.0345 5.35487L5.45429 4.96496L5.53414 4.34482L5.00916 4.75003L4.38124 4.36879L4.57167 5.08771L4.13418 5.42539L4.75431 5.50524L4.98452 6.1653L5.30691 5.49759Z" fill="#FFDB44"/>
<path d="M5.29716 9.65696L4.98109 8.98624L4.74466 9.6441L4.1238 9.7181L4.64494 10.1282L4.42858 10.8303L5.07923 10.47L5.51352 10.8118L5.43952 10.191L6.02338 9.80653L5.29716 9.65696Z" fill="#FFDB44"/>
<path d="M4.48595 7.56048L4.95109 6.98307L4.25606 7.05791L3.91816 6.53182L3.77702 7.17981L3.05104 7.292L3.65939 7.7198L3.54177 8.25979L4.06786 7.9219L4.6688 8.27904L4.48595 7.56048Z" fill="#FFDB44"/>
</svg>
