<svg width="15" height="15" viewBox="0 0 15 15" fill="none" xmlns="http://www.w3.org/2000/svg">
<g clip-path="url(#clip0_1450_4197)">
<rect width="15" height="15" rx="7.5" fill="#3A99FF"/>
<path fill-rule="evenodd" clip-rule="evenodd" d="M13 5V6H14V5H13ZM16 5V6H17V5H16ZM11 8V9H12V8H11ZM15 9V10H16V9H15ZM11 11V12H12V11H11ZM7 10V11H8V10H7Z" fill="#FFDA2C"/>
<path d="M8 1H1C0.447715 1 0 1.44772 0 2V7C0 7.55228 0.447715 8 1 8H8C8.55229 8 9 7.55228 9 7V2C9 1.44772 8.55229 1 8 1Z" fill="white"/>
<path fill-rule="evenodd" clip-rule="evenodd" d="M4 5H1V4H4V2H5V4H8V5H5V7H4V5ZM6.5 6V7H8V6H6.5ZM6.5 2V3H8V2H6.5ZM1 6V7H2.5V6H1ZM1 2V3H2.5V2H1Z" fill="#F93939"/>
</g>
<defs>
<clipPath id="clip0_1450_4197">
<rect width="15" height="15" rx="7.5" fill="white"/>
</clipPath>
</defs>
</svg>
