<svg width="15" height="15" viewBox="0 0 15 15" fill="none" xmlns="http://www.w3.org/2000/svg">
<path d="M15 7.5C15 11.6421 11.6421 15 7.5 15C3.35786 15 0 11.6421 0 7.5C0 3.35786 3.35786 0 7.5 0C11.6421 0 15 3.35786 15 7.5Z" fill="#0052B5"/>
<path d="M5.625 4.125V0.236283C5.9304 0.157677 6.24334 0.0978243 6.5625 0.0580254C6.86962 0.0197281 7.18251 0 7.5 0C7.81749 0 8.13038 0.0197281 8.4375 0.0580254C8.75666 0.0978243 9.0696 0.157677 9.375 0.236283V5.15625L12.5625 1.9663C12.9061 2.28082 13.4073 2.90817 13.6875 3.28125L11.25 5.625H14.7637C14.8423 5.9304 14.9022 6.24334 14.942 6.5625C14.9803 6.86962 15 7.18251 15 7.5C15 7.8175 14.9803 8.13038 14.942 8.4375C14.9022 8.75666 14.8423 9.0696 14.7637 9.375H10.6875L13.5005 12C13.0974 12.5367 12.6239 13.0176 12.0938 13.429L9.375 10.6875V14.7637C9.0696 14.8423 8.75666 14.9022 8.4375 14.942C8.13038 14.9803 7.81749 15 7.5 15C7.1825 15 6.86962 14.9803 6.5625 14.942C6.24334 14.9022 5.9304 14.8423 5.625 14.7637L5.625 9.9375L2.53125 13.1181C2.11168 12.7467 1.73402 12.3291 1.40625 11.8732L4.125 9.375H0.236283C0.157677 9.0696 0.0978247 8.75666 0.0580258 8.4375C0.0197283 8.13038 0 7.8175 0 7.5C0 7.18251 0.0197281 6.86962 0.0580254 6.5625C0.0978242 6.24334 0.157677 5.9304 0.236283 5.625H4.21875L1.5 2.99927C1.91612 2.44542 2.40714 1.95105 2.95803 1.53121L5.625 4.125Z" fill="white"/>
<path d="M5.625 5.625L2.20217 2.19123C2.02118 2.37185 1.84937 2.56167 1.6875 2.75992L4.6875 5.625H5.625Z" fill="#D90026"/>
<path d="M9.375 5.625L12.7978 2.19123C12.9788 2.37185 13.1506 2.56167 13.3125 2.75992L10.3125 5.625H9.375Z" fill="#D90026"/>
<path d="M9.375 9.43937L12.7978 12.8731C12.9788 12.6925 13.1506 12.5027 13.3125 12.3044L10.3125 9.43937H9.375Z" fill="#D90026"/>
<path d="M5.625 9.43937L2.20217 12.8731C2.02118 12.6925 1.84937 12.5027 1.6875 12.3044L4.6875 9.43937H5.625Z" fill="#D90026"/>
<path d="M0.0580254 6.5625C0.0197281 6.86962 0 7.18251 0 7.5C0 7.8175 0.0197283 8.13038 0.0580258 8.4375H6.5625V14.942C6.86962 14.9803 7.1825 15 7.5 15C7.81749 15 8.13038 14.9803 8.4375 14.942V8.4375H14.942C14.9803 8.13038 15 7.8175 15 7.5C15 7.18251 14.9803 6.86962 14.942 6.5625H8.4375V0.0580254C8.07053 0.00282495 7.88236 0 7.5 0C7.18251 0 6.86962 0.0197281 6.5625 0.0580254V6.5625H0.0580254Z" fill="#D90026"/>
</svg>
