<svg width="15" height="15" viewBox="0 0 15 15" fill="none" xmlns="http://www.w3.org/2000/svg">
<g clip-path="url(#clip0_1450_4316)">
<rect width="15" height="15" rx="7.5" fill="white"/>
<path fill-rule="evenodd" clip-rule="evenodd" d="M6 9H-3V6H6V0H9V6H18V9H9V15H6V9Z" fill="#F93939"/>
<path fill-rule="evenodd" clip-rule="evenodd" d="M12 11H11V12H12V13H13V12H14V11H13V10H12V11ZM12 3H11V4H12V5H13V4H14V3H13V2H12V3ZM2 3H1V4H2V5H3V4H4V3H3V2H2V3ZM2 11H1V12H2V13H3V12H4V11H3V10H2V11Z" fill="#F93939"/>
</g>
<defs>
<clipPath id="clip0_1450_4316">
<rect width="15" height="15" rx="7.5" fill="white"/>
</clipPath>
</defs>
</svg>
