<svg width="15" height="15" viewBox="0 0 15 15" fill="none" xmlns="http://www.w3.org/2000/svg">
<g clip-path="url(#clip0_1450_4307)">
<rect width="15" height="15" rx="7.5" fill="#F93939"/>
<path fill-rule="evenodd" clip-rule="evenodd" d="M-3 0H18V8H-3V0Z" fill="#1A47B8"/>
<path fill-rule="evenodd" clip-rule="evenodd" d="M3 5H11.3333V10H3V5Z" fill="white"/>
<path fill-rule="evenodd" clip-rule="evenodd" d="M6.33344 6.66664H8.0001V9.99997H6.33344V6.66664Z" fill="#FFDA2C"/>
<path fill-rule="evenodd" clip-rule="evenodd" d="M4.66656 7.5C4.66656 6.12 5.77656 5 7.16656 5C8.54656 5 9.66656 6.11 9.66656 7.5V10H4.66656V7.5ZM6.33323 7.50833C6.33323 7.04167 6.7199 6.66667 7.16656 6.66667C7.62656 6.66667 7.9999 7.02333 7.9999 7.50833V10H6.33323V7.50833Z" fill="#249F58"/>
</g>
<defs>
<clipPath id="clip0_1450_4307">
<rect width="15" height="15" rx="7.5" fill="white"/>
</clipPath>
</defs>
</svg>
