<svg width="15" height="15" viewBox="0 0 15 15" fill="none" xmlns="http://www.w3.org/2000/svg">
<g clip-path="url(#clip0_1450_4298)">
<rect width="15" height="15" rx="7.5" fill="white"/>
<path fill-rule="evenodd" clip-rule="evenodd" d="M-3 10H18V15H-3V10Z" fill="#151515"/>
<path fill-rule="evenodd" clip-rule="evenodd" d="M7 8H8V8.495C8 8.785 8.224 9 8.5 9C8.768 9 9 8.774 9 8.495V6.495C9 6.222 9.232 6 9.5 6C9.776 6 10 6.216 10 6.495V8H11.49C11.772 8 12 8.232 12 8.5C12 8.776 11.778 9 11.49 9H3.51C3.228 9 3 8.768 3 8.5C3 8.288 3.13 8.107 3.32 8.034C3.345 7.97 3.383 7.909 3.436 7.857L4.856 6.437C5.05 6.243 5.371 6.25 5.561 6.439C5.757 6.634 5.763 6.944 5.565 7.142L4.707 8H6V7.505C6 7.225 6.232 7 6.5 7C6.776 7 7 7.214 7 7.505V8Z" fill="#249F58"/>
<path fill-rule="evenodd" clip-rule="evenodd" d="M-3 0H18V5H-3V0Z" fill="#F93939"/>
</g>
<defs>
<clipPath id="clip0_1450_4298">
<rect width="15" height="15" rx="7.5" fill="white"/>
</clipPath>
</defs>
</svg>
