<svg width="15" height="15" viewBox="0 0 15 15" fill="none" xmlns="http://www.w3.org/2000/svg">
<g clip-path="url(#clip0_1450_4299)">
<rect width="15" height="15" rx="7.5" fill="white"/>
<path fill-rule="evenodd" clip-rule="evenodd" d="M7.5 9C8.88 9 10 8.328 10 7.5C10 6.672 8.88 6 7.5 6C6.12 6 5 6.672 5 7.5C5 8.328 6.12 9 7.5 9ZM7.5 8.25C8.328 8.25 9 7.746 9 7.125C9 6.505 8.328 6 7.5 6C6.672 6 6 6.504 6 7.125C6 7.745 6.672 8.25 7.5 8.25Z" fill="#F93939"/>
<path d="M7.5 8C7.77614 8 8 7.55228 8 7C8 6.44772 7.77614 6 7.5 6C7.22386 6 7 6.44772 7 7C7 7.55228 7.22386 8 7.5 8Z" fill="#AF010D"/>
<path fill-rule="evenodd" clip-rule="evenodd" d="M-3 10H18V15H-3V10Z" fill="#F93939"/>
<path fill-rule="evenodd" clip-rule="evenodd" d="M-3 0H18V5H-3V0Z" fill="#00B731"/>
</g>
<defs>
<clipPath id="clip0_1450_4299">
<rect width="15" height="15" rx="7.5" fill="white"/>
</clipPath>
</defs>
</svg>
