<svg width="15" height="15" viewBox="0 0 15 15" fill="none" xmlns="http://www.w3.org/2000/svg">
<g clip-path="url(#clip0_1450_4289)">
<rect width="15" height="15" rx="7.5" fill="#151515"/>
<path fill-rule="evenodd" clip-rule="evenodd" d="M-3 10H18V11H-3V10Z" fill="white"/>
<path fill-rule="evenodd" clip-rule="evenodd" d="M-3 11H18V15H-3V11Z" fill="#0A6A30"/>
<path fill-rule="evenodd" clip-rule="evenodd" d="M-3 5H18V10H-3V5Z" fill="#F93939"/>
<path fill-rule="evenodd" clip-rule="evenodd" d="M-3 4H18V5H-3V4Z" fill="white"/>
<path fill-rule="evenodd" clip-rule="evenodd" d="M9.41392 5.914C9.48592 5.914 9.91392 5.244 9.91392 4.414C9.91392 3.586 9.48592 2.914 9.41392 2.914C9.34392 2.914 8.91392 3.586 8.91392 4.414C8.91392 5.244 9.34392 5.914 9.41392 5.914ZM6.47492 5.475C6.42492 5.525 5.64492 5.355 5.06092 4.768C4.47592 4.182 4.30392 3.404 4.35492 3.354C4.40492 3.304 5.18292 3.474 5.76892 4.061C6.35492 4.647 6.52592 5.425 6.47592 5.476L6.47492 5.475ZM8.35392 10.008C8.40392 9.961 9.18392 10.121 9.76892 10.668C10.3539 11.218 10.5259 11.945 10.4759 11.992C10.4259 12.039 9.64592 11.879 9.05992 11.332C8.47492 10.782 8.30292 10.055 8.35392 10.008ZM6.47492 10.008C6.42492 9.961 5.64492 10.121 5.06092 10.668C4.47592 11.218 4.30392 11.945 4.35492 11.992C4.40492 12.039 5.18292 11.879 5.76892 11.332C6.35492 10.782 6.52592 10.055 6.47592 10.008H6.47492Z" fill="white"/>
<path fill-rule="evenodd" clip-rule="evenodd" d="M7.5 12C7.857 12 10 9.985 10 7.5C10 5.015 7.857 3 7.5 3C7.143 3 5 5.015 5 7.5C5 9.985 7.143 12 7.5 12Z" fill="#F93939"/>
<path fill-rule="evenodd" clip-rule="evenodd" d="M5.5 9C5.57 9 6 8.328 6 7.5C6 6.672 5.57 6 5.5 6C5.43 6 5 6.672 5 7.5C5 8.328 5.43 9 5.5 9ZM9.5 9C9.57 9 10 8.328 10 7.5C10 6.672 9.57 6 9.5 6C9.43 6 9 6.672 9 7.5C9 8.328 9.43 9 9.5 9Z" fill="#151515"/>
<path d="M8 7.5C8 6.67157 7.77614 6 7.5 6C7.22386 6 7 6.67157 7 7.5C7 8.32843 7.22386 9 7.5 9C7.77614 9 8 8.32843 8 7.5Z" fill="white"/>
</g>
<defs>
<clipPath id="clip0_1450_4289">
<rect width="15" height="15" rx="7.5" fill="white"/>
</clipPath>
</defs>
</svg>
