<svg width="15" height="15" viewBox="0 0 15 15" fill="none" xmlns="http://www.w3.org/2000/svg">
<rect width="15" height="15" rx="7.5" fill="#F93939"/>
<path fill-rule="evenodd" clip-rule="evenodd" d="M7.206 9.485C7.303 9.495 7.401 9.5 7.5 9.5C7.6 9.5 7.697 9.495 7.794 9.485L7.5 8.75L7.206 9.485ZM5.85 8.94C5.327 8.526 5 7.922 5 7.25C5 6.457 5.456 5.76 6.144 5.36L7 7.5L5.85 8.94ZM8.856 5.36C9.544 5.76 10 6.457 10 7.25C10 7.923 9.672 8.527 9.15 8.94L8 7.5L8.856 5.36ZM8.756 5.304C8.386 5.11 7.958 5 7.5 5C7.042 5 6.613 5.11 6.244 5.304L7.5 6.874L8.756 5.304Z" fill="#FFDA2C"/>
<path fill-rule="evenodd" clip-rule="evenodd" d="M7.5 12C9.985 12 12 9.985 12 7.5C12 5.015 9.985 3 7.5 3C5.015 3 3 5.015 3 7.5C3 9.985 5.015 12 7.5 12ZM7.5 11C9.433 11 11 9.433 11 7.5C11 5.567 9.433 4 7.5 4C5.567 4 4 5.567 4 7.5C4 9.433 5.567 11 7.5 11Z" fill="#FFDA2C"/>
</svg>
