<svg width="15" height="15" viewBox="0 0 15 15" fill="none" xmlns="http://www.w3.org/2000/svg">
<rect width="15" height="15" rx="7.5" fill="#03BCDB"/>
<path fill-rule="evenodd" clip-rule="evenodd" d="M1 2.495C1 2.222 1.232 2 1.5 2C1.776 2 2 2.216 2 2.495V4.505C2 4.778 1.768 5 1.5 5C1.224 5 1 4.784 1 4.505V2.495ZM2 4.495C2 4.222 2.232 4 2.5 4C2.776 4 3 4.216 3 4.495V6.505C3 6.778 2.768 7 2.5 7C2.224 7 2 6.784 2 6.505V4.495ZM2 8.495C2 8.222 2.232 8 2.5 8C2.776 8 3 8.216 3 8.495V10.505C3 10.778 2.768 11 2.5 11C2.224 11 2 10.784 2 10.505V8.495ZM1 10.495C1 10.222 1.232 10 1.5 10C1.776 10 2 10.216 2 10.495V12.505C2 12.778 1.768 13 1.5 13C1.224 13 1 12.784 1 12.505V10.495ZM1 6.5C1 6.224 1.232 6 1.5 6C1.776 6 2 6.232 2 6.5C2 6.776 1.768 7 1.5 7C1.224 7 1 6.768 1 6.5ZM2 2.5C2 2.224 2.232 2 2.5 2C2.776 2 3 2.232 3 2.5C3 2.776 2.768 3 2.5 3C2.224 3 2 2.768 2 2.5ZM1 7.5C1 7.224 1.232 7 1.5 7C1.776 7 2 7.232 2 7.5C2 7.776 1.768 8 1.5 8C1.224 8 1 7.768 1 7.5ZM2 12.5C2 12.224 2.232 12 2.5 12C2.776 12 3 12.232 3 12.5C3 12.776 2.768 13 2.5 13C2.224 13 2 12.768 2 12.5ZM1 8.5C1 8.224 1.232 8 1.5 8C1.776 8 2 8.232 2 8.5C2 8.776 1.768 9 1.5 9C1.224 9 1 8.768 1 8.5Z" fill="#FFDA2C"/>
<path d="M10.5 9C11.8807 9 13 7.88071 13 6.5C13 5.11929 11.8807 4 10.5 4C9.11929 4 8 5.11929 8 6.5C8 7.88071 9.11929 9 10.5 9Z" fill="#FFDA2C"/>
<path fill-rule="evenodd" clip-rule="evenodd" d="M7 7L8 9L10.5 10L13 9L14 7V10L10.5 11L7 10V7Z" fill="#FFDA2C"/>
</svg>
