<svg width="15" height="15" viewBox="0 0 15 15" fill="none" xmlns="http://www.w3.org/2000/svg">
<g clip-path="url(#clip0_1450_4213)">
<rect width="15" height="15" rx="7.5" fill="#FFDA2C"/>
<rect x="-3" width="21" height="15" fill="#FFDA2C"/>
<rect opacity="0.3" x="-3" width="21" height="15" fill="#FF6C2D"/>
<path fill-rule="evenodd" clip-rule="evenodd" d="M-1 2H2V13H-1V2Z" fill="#0A6A30"/>
<path fill-rule="evenodd" clip-rule="evenodd" d="M2 2H5V13H2V2Z" fill="#FF6C2D"/>
<path opacity="0.2" fill-rule="evenodd" clip-rule="evenodd" d="M2 2H5V13H2V2Z" fill="#151515"/>
<path fill-rule="evenodd" clip-rule="evenodd" d="M6 2H16V13H6V2ZM9.53501 10.616L9.59301 10.572L9.61701 10.616C9.65001 10.676 9.74101 10.674 9.80101 10.616L9.84801 10.569L9.88801 10.614C9.93801 10.674 10.032 10.674 10.092 10.614C10.136 10.572 10.142 10.571 10.17 10.604C10.186 10.622 10.235 10.644 10.278 10.651C10.356 10.665 10.358 10.664 10.403 10.573C10.443 10.497 10.448 10.467 10.439 10.393C10.433 10.343 10.426 10.265 10.424 10.218C10.422 10.132 10.422 10.131 10.516 10.088C10.566 10.064 10.626 10.032 10.649 10.016C10.686 9.99002 10.789 9.82902 10.789 9.79602C10.789 9.78802 10.749 9.77602 10.699 9.76802C10.504 9.73802 10.471 9.59802 10.599 9.33802C10.806 8.91602 10.931 8.50302 10.932 8.24002C10.932 8.12302 10.937 8.08302 10.949 8.11002C10.995 8.21302 10.912 8.65002 10.786 8.96502L10.736 9.09202L10.784 9.07702C10.81 9.06702 10.967 8.98002 11.131 8.88102C11.581 8.61102 11.736 8.55702 12.028 8.57302C12.272 8.58702 12.376 8.65002 12.548 8.89102C12.64 9.01802 12.728 9.10902 12.888 9.24302C13.232 9.52902 13.246 9.55302 13.262 9.88902C13.279 10.229 13.272 10.249 13.077 10.305C12.912 10.353 12.807 10.455 12.78 10.598C12.766 10.675 12.797 10.678 12.88 10.606L12.94 10.554L12.968 10.606C13.004 10.676 13.08 10.676 13.143 10.606L13.19 10.556L13.238 10.606C13.314 10.686 13.415 10.668 13.443 10.566C13.448 10.548 13.463 10.554 13.493 10.588C13.548 10.652 13.689 10.68 13.705 10.628C13.711 10.61 13.699 10.563 13.68 10.524C13.598 10.36 13.572 10.281 13.57 10.192C13.57 10.068 13.597 10.008 13.704 9.90602C13.834 9.78302 13.874 9.62602 13.776 9.62602C13.716 9.62602 13.654 9.55302 13.616 9.43602C13.536 9.20102 13.551 8.93602 13.67 8.49602C13.79 8.04602 13.804 7.96602 13.805 7.66602C13.805 7.42302 13.802 7.38102 13.76 7.24802C13.735 7.16802 13.683 7.04602 13.646 6.98002L13.579 6.86002L13.666 6.76202C13.933 6.46802 13.879 5.98602 13.556 5.80202C13.459 5.74402 13.434 5.73902 13.262 5.74202C13.158 5.74202 13.002 5.76002 12.912 5.78202C12.82 5.80202 12.666 5.82002 12.56 5.82002C12.392 5.82002 12.364 5.81602 12.3 5.77002C12.232 5.72202 12.22 5.70002 12.207 5.59002C12.205 5.56602 12.193 5.54402 12.181 5.54002C12.158 5.53002 12.051 5.65002 12.037 5.70602C12.029 5.73202 12.022 5.73002 12 5.69602C11.985 5.67102 11.964 5.61602 11.953 5.57402C11.926 5.46602 11.959 5.38402 12.053 5.32402L12.128 5.27802L12.086 5.24202C11.996 5.16802 11.843 5.21802 11.788 5.34202C11.772 5.37502 11.755 5.40402 11.75 5.40402C11.745 5.40402 11.715 5.37102 11.684 5.33102C11.568 5.18102 11.608 4.95702 11.764 4.88802C11.846 4.85202 11.919 4.88002 11.934 4.95302C11.957 5.06502 12.03 4.91802 12.017 4.78502C12.007 4.69702 12.007 4.69302 12.054 4.69302C12.118 4.69302 12.254 4.80502 12.297 4.89302C12.347 4.99302 12.342 5.15302 12.287 5.27102L12.247 5.36402L12.301 5.35002C12.381 5.32802 12.461 5.26002 12.501 5.18002C12.543 5.09402 12.548 4.92702 12.511 4.83602C12.474 4.74902 12.478 4.73602 12.531 4.76602C12.623 4.81602 12.671 4.87002 12.708 4.96602C12.742 5.05102 12.744 5.07202 12.726 5.16102C12.716 5.21602 12.691 5.28802 12.672 5.32102C12.642 5.37402 12.642 5.38302 12.665 5.38302C12.708 5.38302 12.8 5.32802 12.832 5.28302C12.848 5.25902 12.872 5.20302 12.885 5.15502L12.908 5.07102L12.935 5.13502C12.973 5.22502 13.045 5.30802 13.135 5.35902C13.232 5.41502 13.272 5.41902 13.222 5.36702C13.188 5.33202 13.125 5.08702 13.144 5.06402C13.154 5.05002 13.286 5.18402 13.434 5.36202C13.576 5.53202 13.664 5.58602 13.794 5.58602C13.961 5.58602 14.057 5.39402 13.984 5.21302C13.939 5.10702 13.842 5.09302 13.786 5.18302C13.76 5.22502 13.753 5.25802 13.76 5.30102C13.77 5.35502 13.766 5.36102 13.73 5.36102C13.68 5.36102 13.586 5.28102 13.418 5.09302C13.161 4.80802 12.848 4.56602 12.623 4.47802C12.478 4.42002 12.169 4.39802 12.023 4.43402C11.863 4.47202 11.673 4.59402 11.571 4.72402C11.389 4.95402 11.387 5.25902 11.564 5.53802L11.614 5.61802L11.58 5.68802C11.53 5.79202 11.534 5.93102 11.59 6.03302C11.615 6.07802 11.64 6.11502 11.646 6.11502C11.652 6.11502 11.658 6.08502 11.66 6.05002C11.665 5.96002 11.694 5.90002 11.744 5.87702C11.788 5.85502 11.817 5.86502 12.022 5.97302C12.237 6.08802 12.59 6.09502 12.966 5.99302C13.151 5.94502 13.368 5.94802 13.464 6.00102C13.639 6.09902 13.68 6.35302 13.551 6.54602C13.495 6.62802 13.441 6.66202 13.261 6.72802C13.123 6.77802 13.091 6.78202 12.778 6.77802C12.511 6.77402 12.415 6.78102 12.306 6.81102C12.188 6.84402 12.116 6.84702 11.768 6.83602L11.366 6.82202L11.411 6.87202C11.435 6.89802 11.471 6.93202 11.488 6.94502C11.518 6.96702 11.518 6.97002 11.472 6.99202C11.445 7.00602 11.387 7.01602 11.342 7.01602H11.259L11.249 7.11002C11.243 7.16202 11.243 7.22002 11.249 7.24302C11.259 7.27602 11.256 7.28002 11.229 7.26802C11.213 7.25802 11.165 7.24302 11.123 7.23102C11.081 7.21902 11.025 7.19602 10.998 7.17802C10.952 7.14802 10.948 7.14802 10.93 7.18802C10.916 7.22402 10.776 7.36202 10.755 7.36202C10.752 7.36202 10.748 7.33502 10.745 7.30202C10.745 7.27002 10.725 7.18502 10.701 7.11402C10.679 7.04402 10.655 6.96602 10.649 6.94202C10.639 6.90602 10.636 6.90402 10.624 6.93202C10.617 6.94902 10.606 6.99702 10.6 7.03902C10.595 7.07902 10.574 7.14902 10.554 7.18902L10.518 7.26302L10.495 7.19902C10.471 7.13102 10.43 7.05902 10.415 7.05902C10.41 7.05902 10.401 7.08202 10.395 7.10902C10.385 7.16402 10.288 7.31902 10.265 7.31902C10.255 7.31902 10.248 7.27502 10.248 7.22202C10.248 7.16802 10.241 7.12502 10.231 7.12502C10.223 7.12502 10.215 7.13802 10.215 7.15502C10.215 7.19502 10.132 7.31802 10.105 7.31802C10.092 7.31802 10.073 7.33202 10.061 7.35002C10.031 7.39602 10.006 7.39002 10.018 7.34002C10.025 7.31502 10.021 7.26002 10.01 7.21502L9.98301 7.11002C9.97901 7.09402 9.95001 7.09802 9.88701 7.12502C9.78501 7.16802 9.75101 7.16102 9.80301 7.10502C9.82301 7.08502 9.85301 7.01702 9.86801 6.95302C9.88401 6.88902 9.90801 6.83302 9.92201 6.82602C9.94001 6.82002 9.93901 6.82902 9.91701 6.86802C9.90201 6.89602 9.88901 6.93402 9.88901 6.95202C9.88901 6.97002 9.87601 7.01202 9.86201 7.04702C9.84801 7.08302 9.83901 7.11402 9.84201 7.11702C9.84601 7.12202 9.88401 7.10302 9.92801 7.07502L10.008 7.02502V7.07002C10.008 7.09502 10.018 7.16002 10.028 7.21602L10.05 7.31602L10.104 7.28302C10.159 7.24902 10.212 7.12802 10.212 7.03502C10.212 6.98702 10.232 6.99502 10.24 7.04502L10.268 7.16502L10.292 7.25902L10.329 7.19902C10.349 7.16602 10.376 7.10202 10.387 7.05602C10.407 6.97802 10.435 6.94402 10.435 7.00102C10.435 7.04302 10.521 7.19102 10.537 7.17902C10.545 7.17302 10.561 7.11702 10.572 7.05502C10.596 6.92502 10.634 6.83702 10.659 6.85502C10.669 6.86302 10.671 6.87502 10.666 6.88502C10.662 6.89502 10.681 6.98002 10.71 7.07302C10.74 7.16602 10.77 7.26002 10.775 7.28102C10.785 7.31602 10.795 7.31102 10.857 7.23802C10.897 7.19302 10.931 7.14302 10.935 7.12602C10.941 7.10202 10.95 7.10302 10.985 7.13202C11.035 7.17402 11.205 7.24202 11.218 7.22402C11.223 7.21802 11.228 7.15902 11.228 7.09402L11.231 6.97402L11.281 6.98702C11.308 6.99502 11.364 6.99402 11.406 6.98702L11.482 6.97202L11.415 6.91002C11.378 6.87602 11.34 6.83202 11.331 6.81202C11.321 6.79202 11.287 6.77202 11.251 6.76902C11.148 6.75702 10.967 6.62202 10.967 6.55902C10.967 6.54602 10.992 6.56602 11.023 6.60402C11.091 6.68602 11.185 6.73802 11.267 6.73802H11.329L11.291 6.67202C11.269 6.63202 11.249 6.56002 11.244 6.49902C11.237 6.40402 11.229 6.38902 11.154 6.31902C11.109 6.27702 11.052 6.21402 11.029 6.17902L10.987 6.11602L10.965 6.19102C10.953 6.23302 10.938 6.26602 10.933 6.26602C10.927 6.26602 10.903 6.24202 10.883 6.21302C10.86 6.18302 10.837 6.15902 10.833 6.15902C10.826 6.15902 10.807 6.19902 10.788 6.24902L10.755 6.33602L10.729 6.28602C10.714 6.25602 10.681 6.20802 10.654 6.17602C10.627 6.14202 10.612 6.11602 10.622 6.11602C10.632 6.11602 10.666 6.15002 10.697 6.19102L10.754 6.26702L10.777 6.21102C10.79 6.17902 10.795 6.12802 10.789 6.08702C10.779 6.02702 10.781 6.02502 10.799 6.06202C10.809 6.08602 10.842 6.13202 10.872 6.16202L10.926 6.22202L10.963 6.13202C11 6.04202 11.001 6.04202 11.017 6.09402C11.04 6.16602 11.202 6.34402 11.34 6.44602C11.36 6.46202 11.352 6.40602 11.313 6.28102C11.303 6.24802 11.293 6.18802 11.293 6.14802C11.293 6.08802 11.281 6.06102 11.223 6.00302C11.141 5.91902 11.115 5.86002 11.099 5.72502C11.093 5.67002 11.079 5.60902 11.067 5.59002C11.05 5.56002 11.047 5.57702 11.052 5.67802C11.054 5.74802 11.047 5.83202 11.036 5.86802L11.016 5.93202L11 5.87802C10.99 5.84802 10.953 5.79802 10.915 5.76302C10.875 5.73002 10.85 5.69702 10.855 5.69002C10.86 5.68402 10.9 5.71402 10.942 5.75802C11.007 5.82502 11.022 5.83202 11.03 5.80302C11.04 5.76802 11.03 5.61702 11.01 5.51302C11 5.45902 11 5.45902 11.05 5.52302C11.086 5.57302 11.105 5.62902 11.12 5.72902C11.14 5.85602 11.15 5.87902 11.238 5.97902C11.291 6.04202 11.338 6.08902 11.34 6.08502C11.344 6.08102 11.35 5.92102 11.355 5.73002C11.365 5.36502 11.355 5.27802 11.288 5.16502L11.254 5.10702L11.307 5.03002C11.377 4.93002 11.409 4.85002 11.423 4.74002L11.435 4.65002L11.375 4.72702C11.325 4.78902 11.302 4.80302 11.245 4.80302C11.188 4.80302 11.165 4.79102 11.128 4.73602C11.082 4.67102 11 4.60902 10.922 4.57802C10.892 4.56802 10.882 4.57202 10.882 4.59802C10.882 4.61802 10.867 4.67202 10.847 4.72002L10.812 4.80802L10.738 4.71002C10.692 4.65002 10.638 4.60402 10.598 4.59002C10.495 4.55402 10.49 4.55702 10.49 4.66002C10.49 4.81302 10.44 4.84202 10.35 4.74002C10.283 4.66002 10.226 4.64402 10.097 4.66302L9.99701 4.67802L10.017 4.73802C10.031 4.78802 10.027 4.80802 9.99501 4.86502C9.94301 4.95702 9.87501 4.99702 9.77101 4.99702C9.72301 4.99702 9.66301 5.01002 9.63701 5.02702C9.61201 5.04202 9.54901 5.06102 9.49701 5.06702C9.44501 5.07402 9.39001 5.08702 9.37401 5.09402C9.35001 5.10602 9.34701 5.09602 9.35401 5.02202C9.36701 4.90802 9.30801 4.82502 9.21401 4.82502C9.09401 4.82502 9.03901 4.96802 9.08601 5.15702C9.09488 5.18897 9.10376 5.23823 9.10983 5.27198L9.11201 5.28402C9.11901 5.31902 9.17201 5.41202 9.24001 5.50102C9.30401 5.58702 9.36401 5.67602 9.37401 5.69902C9.38401 5.72202 9.41701 5.75902 9.44701 5.78102L9.50201 5.82102L9.49501 5.74402C9.48701 5.65802 9.50101 5.64402 9.53501 5.70402C9.54801 5.72702 9.57901 5.76202 9.60501 5.78402C9.64501 5.81602 9.65201 5.81702 9.65201 5.78802C9.65201 5.76802 9.66001 5.72802 9.67001 5.69402L9.69001 5.63402L9.72001 5.71602C9.73801 5.76102 9.79601 5.86402 9.84801 5.94602C9.95001 6.10102 10.012 6.27602 9.98001 6.31602C9.96701 6.33302 9.93201 6.33102 9.86001 6.31202C9.80301 6.29802 9.73301 6.29002 9.70401 6.29502C9.64401 6.30502 9.64101 6.29502 9.67701 6.23502C9.71501 6.17202 9.70901 6.16202 9.63401 6.16202C9.54701 6.16202 9.33201 6.10602 9.24901 6.06202C9.16901 6.02202 9.14901 6.03202 9.12601 6.13202L9.08301 6.31702L9.06001 6.41702L9.14701 6.40702C9.19501 6.40002 9.25701 6.38702 9.28401 6.37502C9.31201 6.36502 9.33701 6.35902 9.34001 6.36202C9.34301 6.36602 9.33001 6.40602 9.31301 6.45002L9.27901 6.53002L9.33401 6.51602C9.36401 6.50802 9.40901 6.48802 9.43401 6.47202C9.47801 6.44402 9.48101 6.44602 9.51601 6.51902C9.55801 6.60902 9.59201 6.60602 9.59901 6.50902C9.60701 6.41102 9.63201 6.42602 9.67901 6.55702C9.72201 6.68302 9.76901 6.72702 9.77701 6.65302C9.78001 6.62902 9.80301 6.58802 9.83001 6.56302C9.88301 6.51302 9.92301 6.52902 9.94501 6.60702C9.97001 6.68702 9.91701 6.77102 9.76501 6.89502C9.45501 7.14302 9.27701 7.48302 9.22501 7.91502C9.17901 8.30502 9.32301 8.70902 9.61201 8.99902C9.75001 9.13902 9.97001 9.28402 9.95601 9.22902C9.89801 8.99102 9.90001 8.53902 9.96001 8.46202C9.97001 8.45002 9.96601 8.49702 9.95301 8.56602C9.90501 8.82402 9.92601 9.02902 10.05 9.51002C10.16 9.94602 10.146 10.132 9.98801 10.254C9.93801 10.294 9.90401 10.3 9.76801 10.298C9.62001 10.296 9.60401 10.3 9.55601 10.35C9.51001 10.4 9.45101 10.56 9.45101 10.634C9.45101 10.674 9.48401 10.669 9.55101 10.618L9.53501 10.616ZM8.41501 9.81602C8.43101 9.78902 8.44301 9.74602 8.44301 9.72102C8.44301 9.68302 8.45601 9.67302 8.52001 9.66102L8.59701 9.64702L8.54701 9.59202C8.48501 9.52802 8.47901 9.47802 8.53301 9.47802C8.58601 9.47802 8.67701 9.40402 8.69101 9.34802C8.69801 9.32402 8.69401 9.29002 8.68301 9.27202C8.65301 9.22702 8.59601 9.23402 8.58601 9.28402C8.57401 9.33802 8.55601 9.33902 8.51301 9.28402C8.44901 9.20402 8.44701 9.03602 8.51001 8.93802C8.53801 8.89202 8.53801 8.88802 8.50001 8.84202C8.46001 8.79002 8.43001 8.68902 8.45001 8.66502C8.45601 8.65802 8.48801 8.66502 8.52001 8.67902C8.56801 8.69902 8.58701 8.70102 8.60601 8.67902C8.66601 8.61902 8.60101 8.53902 8.50601 8.55702C8.46901 8.56402 8.45401 8.55702 8.44801 8.53102C8.44401 8.51102 8.41101 8.48402 8.37301 8.47102C8.30701 8.44902 8.30601 8.45102 8.30601 8.51102C8.30601 8.57802 8.27601 8.59102 8.22301 8.54802C8.17801 8.51302 8.13501 8.54002 8.13501 8.60302C8.13501 8.66102 8.18001 8.69002 8.25901 8.68302C8.31901 8.67802 8.32201 8.73902 8.26401 8.82502L8.22201 8.88802L8.25501 8.95102C8.30501 9.04402 8.30001 9.19902 8.24501 9.27602L8.20501 9.33602L8.17701 9.28802C8.13901 9.22102 8.08701 9.22602 8.07201 9.29802C8.06201 9.34502 8.07201 9.36602 8.11501 9.41602C8.14501 9.44902 8.18801 9.47602 8.21101 9.47602C8.26901 9.47602 8.26701 9.53602 8.20701 9.59802L8.16001 9.64602L8.23401 9.66102C8.27401 9.66902 8.30601 9.68502 8.30601 9.69602C8.30601 9.73602 8.35601 9.86402 8.37301 9.86402C8.38301 9.86402 8.40301 9.84402 8.41601 9.81702L8.41501 9.81602ZM8.66801 7.64602C8.83401 7.54902 8.84801 7.30202 8.69201 7.23602C8.62701 7.21002 8.58601 7.22602 8.56201 7.28302C8.54201 7.32802 8.55501 7.40902 8.58201 7.40902C8.59001 7.40902 8.59701 7.42302 8.59701 7.44102C8.59701 7.52702 8.34401 7.56602 8.24101 7.49602C8.20501 7.47102 8.19101 7.40802 8.22101 7.40802C8.24101 7.40802 8.25801 7.34202 8.24701 7.29602C8.23101 7.23402 8.18301 7.21202 8.11501 7.23602C7.96001 7.29002 7.96501 7.53202 8.12201 7.63602C8.25201 7.71902 8.53601 7.72402 8.67001 7.64602H8.66801ZM8.56501 7.45602C8.57501 7.44602 8.57101 7.42602 8.55501 7.40902C8.52001 7.37202 8.52201 7.31702 8.56001 7.25402C8.59001 7.20702 8.59301 7.13702 8.60301 6.42802C8.62001 5.20402 8.68801 4.28502 8.77801 4.06502C8.81401 3.97702 8.80801 3.97502 8.71601 4.06002C8.59601 4.16802 8.50601 4.31002 8.42601 4.51002C8.27401 4.89002 8.22101 5.40202 8.22101 6.49402C8.22101 7.11402 8.22501 7.19402 8.25101 7.25402C8.27701 7.30802 8.27801 7.32902 8.26101 7.38802C8.24901 7.42602 8.24401 7.46302 8.24901 7.46802C8.28301 7.51202 8.52901 7.50102 8.56601 7.45502L8.56501 7.45602ZM8 3H7V4H8V3ZM15 3H14V4H15V3ZM8 11H7V12H8V11ZM15 11H14V12H15V11Z" fill="#AF010D"/>
</g>
<defs>
<clipPath id="clip0_1450_4213">
<rect width="15" height="15" rx="7.5" fill="white"/>
</clipPath>
</defs>
</svg>
