<svg width="15" height="15" viewBox="0 0 15 15" fill="none" xmlns="http://www.w3.org/2000/svg">
<rect width="15" height="15" rx="7.5" fill="#ED684B"/>
<rect width="8.18182" height="8.18182" transform="translate(3.40912 3.40909)" fill="#ED684B"/>
<path fill-rule="evenodd" clip-rule="evenodd" d="M6.9549 9.41724L7.47578 7.66078L8.28739 7.43063L8.45698 6.84918L7.65749 7.09145L8.50543 4.20843V4.1624C8.50481 4.14394 8.50055 4.12579 8.4929 4.10898C8.48526 4.09217 8.47437 4.07703 8.46087 4.06443C8.44737 4.05183 8.43152 4.04202 8.41423 4.03555C8.39693 4.02908 8.37853 4.02608 8.36007 4.02673H7.28197C7.24115 4.02547 7.20109 4.03791 7.16816 4.06205C7.13523 4.0862 7.11133 4.12067 7.10027 4.15998L6.09484 7.57599L5.29535 7.81826L5.11365 8.37548L5.91314 8.13321L5.19844 10.568H9.4624C9.50331 10.5697 9.54358 10.5575 9.5766 10.5332C9.60962 10.509 9.63342 10.4743 9.6441 10.4348L9.88637 9.59895V9.55292C9.88575 9.53446 9.88149 9.51631 9.87385 9.4995C9.8662 9.48269 9.85532 9.46755 9.84182 9.45495C9.82832 9.44235 9.81246 9.43253 9.79517 9.42606C9.77787 9.41959 9.75947 9.4166 9.74101 9.41724H6.9549Z" fill="white"/>
</svg>
