<svg width="15" height="15" viewBox="0 0 15 15" fill="none" xmlns="http://www.w3.org/2000/svg">
<g clip-path="url(#clip0_1450_4280)">
<rect width="15" height="15" rx="7.5" fill="#151515"/>
<path fill-rule="evenodd" clip-rule="evenodd" d="M-3 11H18V15H-3V11Z" fill="#249F58"/>
<path fill-rule="evenodd" clip-rule="evenodd" d="M-3 0H18V4H-3V0Z" fill="#F93939"/>
<path fill-rule="evenodd" clip-rule="evenodd" d="M9 7H10V8H9V7Z" fill="white"/>
<path fill-rule="evenodd" clip-rule="evenodd" d="M9.5 9C9.044 9.607 8.318 10 7.5 10C6.12 10 5 8.88 5 7.5C5 6.12 6.12 5 7.5 5C8.318 5 9.044 5.393 9.5 6H8C7.172 6 6.5 6.672 6.5 7.5C6.5 8.328 7.172 9 8 9H9.5Z" fill="white"/>
</g>
<defs>
<clipPath id="clip0_1450_4280">
<rect width="15" height="15" rx="7.5" fill="white"/>
</clipPath>
</defs>
</svg>
