<svg width="15" height="15" viewBox="0 0 15 15" fill="none" xmlns="http://www.w3.org/2000/svg">
<g clip-path="url(#clip0_1450_4250)">
<rect width="15" height="15" rx="7.5" fill="#AF010D"/>
<path fill-rule="evenodd" clip-rule="evenodd" d="M-3 0L7 7H8L1 0H-3ZM-3 15L7 8H8L1 15H-3Z" fill="#FFDA2C"/>
<path fill-rule="evenodd" clip-rule="evenodd" d="M8 7H7L14 0H18L8 7ZM8 8H7L14 15H18L8 8ZM5 7L-3 6V9L5 8V7ZM10 7L18 6V9L10 8V7ZM7 5L6 0H9L8 5H7ZM7 10L6 15H9L8 10" fill="#FFDA2C"/>
<path d="M7.5 10C8.88071 10 10 8.88071 10 7.5C10 6.11929 8.88071 5 7.5 5C6.11929 5 5 6.11929 5 7.5C5 8.88071 6.11929 10 7.5 10Z" fill="#AF010D"/>
<path d="M7.5 9C8.32843 9 9 8.32843 9 7.5C9 6.67157 8.32843 6 7.5 6C6.67157 6 6 6.67157 6 7.5C6 8.32843 6.67157 9 7.5 9Z" fill="#FFDA2C"/>
</g>
<defs>
<clipPath id="clip0_1450_4250">
<rect width="15" height="15" rx="7.5" fill="white"/>
</clipPath>
</defs>
</svg>
