<svg width="15" height="15" viewBox="0 0 15 15" fill="none" xmlns="http://www.w3.org/2000/svg">
<circle cx="7.5" cy="7.5" r="7.5" fill="#249F58"/>
<path fill-rule="evenodd" clip-rule="evenodd" d="M7.49812 7.751L6.02812 8.524L6.30812 6.887L5.12012 5.727L6.76312 5.49L7.49812 4L8.23212 5.49L9.87512 5.727L8.68512 6.887L8.96712 8.523" fill="white"/>
<path fill-rule="evenodd" clip-rule="evenodd" d="M11.965 6.43899C11.988 6.62299 12 6.81099 12 7.00099C12 9.48599 9.985 11.501 7.5 11.501C5.015 11.501 3 9.48599 3 7.00099C3 6.81099 3.012 6.62299 3.035 6.43799C3.312 8.16599 5.205 9.50099 7.5 9.50099C9.795 9.50099 11.688 8.16499 11.965 6.43799V6.43899Z" fill="white"/>
</svg>
