<svg width="15" height="15" viewBox="0 0 15 15" fill="none" xmlns="http://www.w3.org/2000/svg">
<g clip-path="url(#clip0_1450_4261)">
<rect width="15" height="15" rx="7.5" fill="#151515"/>
<path fill-rule="evenodd" clip-rule="evenodd" d="M-3 10H18V15H-3V10Z" fill="#FFDA2C"/>
<path fill-rule="evenodd" clip-rule="evenodd" d="M-3 0H18V5H-3V0Z" fill="#249F58"/>
<path opacity="0.35" fill-rule="evenodd" clip-rule="evenodd" d="M-3 0H18V5H-3V0Z" fill="#1A47B8"/>
<path fill-rule="evenodd" clip-rule="evenodd" d="M-3 4H18V5H-3V4ZM-3 10H18V11H-3V10Z" fill="white"/>
<path fill-rule="evenodd" clip-rule="evenodd" d="M-1 0V15.033L9 7.5L-1 0Z" fill="#F93939"/>
<path fill-rule="evenodd" clip-rule="evenodd" d="M2.378 8.75L0.908 9.523L1.188 7.886L0 6.726L1.643 6.489L2.378 5L3.112 6.49L4.755 6.727L3.565 7.887L3.847 9.523" fill="#FFDA2C"/>
<path fill-rule="evenodd" clip-rule="evenodd" d="M1.28003 6.38403L1.63403 6.03003L3.75403 8.15203L3.40203 8.50503L1.28003 6.38503V6.38403Z" fill="#151515"/>
<path fill-rule="evenodd" clip-rule="evenodd" d="M3.75503 6.38403L3.40203 6.03003L1.28003 8.15203L1.63403 8.50503L3.75403 6.38503L3.75503 6.38403Z" fill="#151515"/>
</g>
<defs>
<clipPath id="clip0_1450_4261">
<rect width="15" height="15" rx="7.5" fill="white"/>
</clipPath>
</defs>
</svg>
