<svg width="15" height="15" viewBox="0 0 15 15" fill="none" xmlns="http://www.w3.org/2000/svg">
<g clip-path="url(#clip0_1450_4255)">
<rect width="15" height="15" rx="7.5" fill="#1A47B8"/>
<path d="M16 0H-1C-2.10457 0 -3 0.89543 -3 2V13C-3 14.1046 -2.10457 15 -1 15H16C17.1046 15 18 14.1046 18 13V2C18 0.89543 17.1046 0 16 0Z" fill="#1A47B8"/>
<path fill-rule="evenodd" clip-rule="evenodd" d="M12 4V5H13V4H12ZM14 6V7H15V6H14ZM10 7V8H11V7H10ZM12 11V12H13V11H12Z" fill="#F93939"/>
<path d="M6 1H-1C-1.55228 1 -2 1.44772 -2 2V7C-2 7.55228 -1.55228 8 -1 8H6C6.55229 8 7 7.55228 7 7V2C7 1.44772 6.55229 1 6 1Z" fill="white"/>
<path fill-rule="evenodd" clip-rule="evenodd" d="M2 5H-1V4H2V2H3V4H6V5H3V7H2V5ZM4.5 6V7H6V6H4.5ZM4.5 2V3H6V2H4.5ZM-1 6V7H0.5V6H-1ZM-1 2V3H0.5V2H-1Z" fill="#F93939"/>
</g>
<defs>
<clipPath id="clip0_1450_4255">
<rect width="15" height="15" rx="7.5" fill="white"/>
</clipPath>
</defs>
</svg>
