<svg width="15" height="15" viewBox="0 0 15 15" fill="none" xmlns="http://www.w3.org/2000/svg">
<g clip-path="url(#clip0_1450_4248)">
<rect width="15" height="15" rx="7.5" fill="#F93939"/>
<path d="M16 0H-1C-2.10457 0 -3 0.89543 -3 2V13C-3 14.1046 -2.10457 15 -1 15H16C17.1046 15 18 14.1046 18 13V2C18 0.89543 17.1046 0 16 0Z" fill="#F93939"/>
<path fill-rule="evenodd" clip-rule="evenodd" d="M3 10H18V15H3V10Z" fill="#249F58"/>
<path fill-rule="evenodd" clip-rule="evenodd" d="M2.99996 0H18V5H2.99996V0ZM1.57596 3.903C1.52096 3.986 1.45796 4.063 1.38596 4.136C0.798963 4.722 -0.151037 4.722 -0.736037 4.136C-1.32204 3.551 -1.32204 2.601 -0.736037 2.016C-0.664037 1.942 -0.586037 1.879 -0.503037 1.824C-0.728037 2.244 -0.543037 2.916 -0.0290371 3.429C0.484963 3.941 1.15596 4.127 1.57696 3.902L1.57596 3.903Z" fill="white"/>
<path fill-rule="evenodd" clip-rule="evenodd" d="M-0.575904 3.90297C-0.520904 3.98597 -0.457904 4.06297 -0.385904 4.13597C0.201096 4.72197 1.1511 4.72197 1.7361 4.13597C2.3221 3.55097 2.3221 2.60097 1.7361 2.01597C1.6641 1.94197 1.5861 1.87897 1.5031 1.82397C1.7281 2.24397 1.5431 2.91597 1.0291 3.42897C0.515095 3.94097 -0.155904 4.12697 -0.576904 3.90197L-0.575904 3.90297Z" fill="white"/>
</g>
<defs>
<clipPath id="clip0_1450_4248">
<rect width="15" height="15" rx="7.5" fill="white"/>
</clipPath>
</defs>
</svg>
