<svg width="15" height="15" viewBox="0 0 15 15" fill="none" xmlns="http://www.w3.org/2000/svg">
<g clip-path="url(#clip0_1450_4244)">
<rect width="15" height="15" rx="7.5" fill="white"/>
<path d="M16 0H-1C-2.10457 0 -3 0.89543 -3 2V13C-3 14.1046 -2.10457 15 -1 15H16C17.1046 15 18 14.1046 18 13V2C18 0.89543 17.1046 0 16 0Z" fill="white"/>
<path fill-rule="evenodd" clip-rule="evenodd" d="M2.974 4.974C2.908 5.57 2.72 6 2.5 6C2.28 6 2.092 5.57 2.026 4.974C1.43 4.908 1 4.72 1 4.5C1 4.28 1.43 4.092 2.026 4.026C2.092 3.43 2.28 3 2.5 3C2.72 3 2.908 3.43 2.974 4.026C3.57 4.092 4 4.28 4 4.5C4 4.72 3.57 4.908 2.974 4.974Z" fill="#1A47B8"/>
<path fill-rule="evenodd" clip-rule="evenodd" d="M12.974 11.974C12.908 12.57 12.72 13 12.5 13C12.28 13 12.092 12.57 12.026 11.974C11.43 11.908 11 11.72 11 11.5C11 11.28 11.43 11.092 12.026 11.026C12.092 10.43 12.279 10 12.5 10C12.72 10 12.908 10.43 12.974 11.026C13.57 11.092 14 11.279 14 11.5C14 11.72 13.57 11.908 12.974 11.974Z" fill="#F93939"/>
<path fill-rule="evenodd" clip-rule="evenodd" d="M-3 8H7V15H-3V8Z" fill="#1A47B8"/>
<path fill-rule="evenodd" clip-rule="evenodd" d="M7 0H18V8H7V0Z" fill="#F93939"/>
</g>
<defs>
<clipPath id="clip0_1450_4244">
<rect width="15" height="15" rx="7.5" fill="white"/>
</clipPath>
</defs>
</svg>
