<svg width="15" height="15" viewBox="0 0 15 15" fill="none" xmlns="http://www.w3.org/2000/svg">
<g clip-path="url(#clip0_1450_4243)">
<rect width="15" height="15" rx="7.5" fill="#AF010D"/>
<path d="M16 0H-1C-2.10457 0 -3 0.89543 -3 2V13C-3 14.1046 -2.10457 15 -1 15H16C17.1046 15 18 14.1046 18 13V2C18 0.89543 17.1046 0 16 0Z" fill="#AF010D"/>
<path fill-rule="evenodd" clip-rule="evenodd" d="M9 3L11 5C11 5 9 4 8 5L7 6H10L15 9L13 6H15C15 6 15 5 14 4C13 3 12 3 12 3V2L11 3H9Z" fill="#FFDA2C"/>
<path fill-rule="evenodd" clip-rule="evenodd" d="M-3 0L18 15H-3V0Z" fill="#151515"/>
<path d="M2.5 8C2.77614 8 3 7.77614 3 7.5C3 7.22386 2.77614 7 2.5 7C2.22386 7 2 7.22386 2 7.5C2 7.77614 2.22386 8 2.5 8Z" fill="white"/>
<path d="M0.5 10C0.776142 10 1 9.77614 1 9.5C1 9.22386 0.776142 9 0.5 9C0.223858 9 0 9.22386 0 9.5C0 9.77614 0.223858 10 0.5 10Z" fill="white"/>
<path d="M4.5 10C4.77614 10 5 9.77614 5 9.5C5 9.22386 4.77614 9 4.5 9C4.22386 9 4 9.22386 4 9.5C4 9.77614 4.22386 10 4.5 10Z" fill="white"/>
<path d="M2.5 13C2.77614 13 3 12.7761 3 12.5C3 12.2239 2.77614 12 2.5 12C2.22386 12 2 12.2239 2 12.5C2 12.7761 2.22386 13 2.5 13Z" fill="white"/>
<path d="M3.5 12C3.77614 12 4 11.7761 4 11.5C4 11.2239 3.77614 11 3.5 11C3.22386 11 3 11.2239 3 11.5C3 11.7761 3.22386 12 3.5 12Z" fill="white"/>
</g>
<defs>
<clipPath id="clip0_1450_4243">
<rect width="15" height="15" rx="7.5" fill="white"/>
</clipPath>
</defs>
</svg>
