<svg width="15" height="15" viewBox="0 0 15 15" fill="none" xmlns="http://www.w3.org/2000/svg">
<g clip-path="url(#clip0_1450_4247)">
<rect width="15" height="15" rx="7.5" fill="#0A6A30"/>
<path d="M17 0H0C-1.10457 0 -2 0.89543 -2 2V13C-2 14.1046 -1.10457 15 0 15H17C18.1046 15 19 14.1046 19 13V2C19 0.89543 18.1046 0 17 0Z" fill="#0A6A30"/>
<path fill-rule="evenodd" clip-rule="evenodd" d="M12.974 5.974C12.908 6.57 12.72 7 12.5 7C12.28 7 12.092 6.57 12.026 5.974C11.43 5.908 11 5.72 11 5.5C11 5.28 11.43 5.092 12.026 5.026C12.092 4.43 12.28 4 12.5 4C12.72 4 12.908 4.43 12.974 5.026C13.57 5.092 14 5.28 14 5.5C14 5.72 13.57 5.908 12.974 5.974ZM-3 0H3V15H-3V0Z" fill="white"/>
<path fill-rule="evenodd" clip-rule="evenodd" d="M14.97 6.968C14.99 7.143 15 7.32 15 7.5C15 9.985 12.985 12 10.5 12C8.015 12 6 9.985 6 7.5C6 5.015 8.015 3 10.5 3C10.68 3 10.857 3.01 11.032 3.03C9.32 3.26 8 4.727 8 6.5C8 8.433 9.567 10 11.5 10C13.274 10 14.74 8.68 14.97 6.968Z" fill="white"/>
</g>
<defs>
<clipPath id="clip0_1450_4247">
<rect width="15" height="15" rx="7.5" fill="white"/>
</clipPath>
</defs>
</svg>
