<svg width="15" height="15" viewBox="0 0 15 15" fill="none" xmlns="http://www.w3.org/2000/svg">
<rect width="15" height="15" rx="7.5" fill="#249F58"/>
<path fill-rule="evenodd" clip-rule="evenodd" d="M13.0001 10V9.00001H2.0001L4.0001 10H10.0001C10.0001 10.552 10.6721 11 11.5001 11C12.3281 11 13.0001 10.552 13.0001 10ZM5.7301 3.90601C5.7181 3.90601 5.7001 3.91201 5.6771 3.92601C5.62311 3.96201 5.5171 4.07301 5.5131 4.20101C5.5101 4.27401 5.49611 4.27401 5.54311 4.32101C5.57711 4.36901 5.6131 4.36501 5.6811 4.32801C5.7211 4.29801 5.73411 4.28101 5.74811 4.23201C5.7641 4.15201 5.6611 4.27201 5.6481 4.18001C5.6251 4.09601 5.69111 4.06001 5.75311 3.98001C5.75511 3.94001 5.7551 3.91001 5.7301 3.90801V3.90601ZM6.7331 3.91101C6.7131 3.91501 6.6901 3.94101 6.6571 3.99901C6.6341 4.06101 6.53311 4.15501 6.60711 4.34901C6.66511 4.47201 6.6901 4.67101 6.66311 4.89401C6.62111 4.95701 6.6131 4.97901 6.5581 5.04201C6.4821 5.12501 6.39811 5.10401 6.33611 5.07201C6.27611 5.03201 6.2301 5.01201 6.2031 4.88601C6.20811 4.68601 6.2201 4.35401 6.1831 4.28401C6.1291 4.17601 6.03911 4.21401 6.00111 4.24701C5.81811 4.41701 5.7271 4.70001 5.6711 4.92701C5.6211 5.09101 5.5661 5.04301 5.5281 4.97701C5.4351 4.88901 5.4281 4.20701 5.3161 4.32001C5.1361 4.83401 5.41911 5.39701 5.61611 5.34201C5.7561 5.40201 5.84611 5.13201 5.90411 4.83701C5.94411 4.75401 5.97411 4.74401 5.99411 4.78701C5.98911 5.17901 6.0241 5.26701 6.1241 5.38501C6.3481 5.55901 6.5341 5.40701 6.5491 5.39301L6.7241 5.21901C6.7641 5.17901 6.81411 5.17501 6.86911 5.21101C6.92311 5.26101 6.91611 5.34401 7.02911 5.40101C7.12711 5.44101 7.3321 5.41101 7.3791 5.32801C7.4441 5.21801 7.45911 5.18001 7.48911 5.13801C7.53511 5.07801 7.61411 5.10501 7.61411 5.12401C7.60711 5.15901 7.5611 5.19401 7.5921 5.25401C7.6471 5.29401 7.66011 5.26801 7.69211 5.25901C7.80611 5.20501 7.89211 4.95701 7.89211 4.95701C7.89711 4.86501 7.84511 4.87201 7.81211 4.89101C7.76711 4.91801 7.76511 4.92701 7.72211 4.95401C7.6651 4.96201 7.5571 4.99901 7.5041 4.91601C7.4491 4.81601 7.4491 4.67801 7.4071 4.57601C7.4071 4.57001 7.33411 4.41901 7.4011 4.41001C7.4341 4.41601 7.5081 4.43501 7.5191 4.37401C7.5551 4.31401 7.4421 4.14401 7.3651 4.06001C7.2991 3.98701 7.20711 3.97801 7.1181 4.05201C7.0551 4.11001 7.0651 4.17401 7.0521 4.23501C7.03711 4.30501 7.04011 4.39201 7.11211 4.48501C7.17411 4.60701 7.2871 4.76501 7.2491 4.98701C7.2491 4.98701 7.1841 5.09301 7.06911 5.07901C7.0191 5.06901 6.9411 5.04901 6.89911 4.73901C6.8691 4.50601 6.9071 4.17901 6.8091 4.02601C6.78611 3.96901 6.7671 3.91301 6.7351 3.91601L6.7331 3.91101ZM6.4151 3.93701C6.3851 3.94001 6.3521 3.97501 6.3251 4.04201C6.3021 4.09401 6.2731 4.36201 6.2781 4.36201C6.2581 4.44201 6.3611 4.47601 6.4081 4.37401C6.47811 4.18401 6.47811 4.10401 6.48211 4.02601C6.47211 3.96601 6.44511 3.93601 6.4151 3.93801V3.93701ZM7.58811 3.95701C7.5581 3.96101 7.5331 3.97901 7.52411 4.02501C7.51111 4.13101 7.51811 4.19001 7.53611 4.27901C7.54911 4.33901 7.63611 4.43701 7.67811 4.49501C7.88111 4.76801 8.0781 5.04201 8.2661 5.32501C8.2961 5.53701 8.31611 5.74301 8.33111 5.94901C8.36311 6.39901 8.3711 6.95901 8.3441 7.43401C8.4281 7.43701 8.56411 7.29701 8.6111 7.09401C8.64111 6.81001 8.60111 6.23401 8.59711 6.06601L8.5871 5.82801C8.8071 6.18801 9.0191 6.56801 9.22711 6.98401C9.30411 6.94801 9.28711 6.51901 9.2431 6.45901C9.0751 6.09901 8.84311 5.74301 8.77011 5.60601C8.74311 5.55601 8.6521 5.41901 8.5451 5.26001C8.5251 5.03201 8.50311 4.84001 8.48911 4.78201C8.45411 4.54201 8.58711 4.80901 8.56911 4.67001C8.5251 4.43001 8.39311 4.26801 8.23711 4.04801C8.18711 3.97801 8.1871 3.96201 8.1101 4.06601C8.0651 4.17101 8.0651 4.25901 8.0801 4.34101C8.0581 4.31101 8.0331 4.27701 7.9971 4.23301L7.7421 4.01701C7.7071 3.99201 7.63911 3.95401 7.58811 3.95701ZM11.0641 3.99401C11.0491 3.99201 11.0341 3.99901 11.0141 4.02601C10.9791 4.05601 10.9421 4.11301 10.9441 4.18601C10.9511 4.31101 10.9741 4.44001 10.9821 4.56601L10.9921 4.61601C10.9781 4.60001 10.9661 4.58601 10.9591 4.58001C10.7121 4.32001 11.0721 4.53601 10.9111 4.33701C10.7761 4.18701 10.7361 4.14101 10.6211 4.05101C10.5611 4.01501 10.5271 3.94301 10.5081 4.06501C10.5001 4.17201 10.4921 4.29701 10.4981 4.38701C10.4981 4.43701 10.5511 4.53201 10.5961 4.58701C10.7601 4.79001 10.9281 5.00501 11.0961 5.22901C11.1321 5.68601 11.1411 6.10501 11.1761 6.56301C11.1721 6.75901 11.1121 7.01901 11.0561 7.04301C11.0561 7.04301 10.9681 7.09301 10.9101 7.03801C10.8671 7.02101 10.6981 6.75501 10.6981 6.75501C10.6111 6.67501 10.5531 6.69801 10.4921 6.75501C10.3221 6.91901 10.2441 7.22701 10.1291 7.43901C10.0991 7.48601 10.0161 7.52701 9.92311 7.43501C9.68611 7.11101 9.8231 6.65001 9.7951 6.76901C9.5851 7.00701 9.67711 7.40101 9.72511 7.48601C9.7951 7.62601 9.8511 7.71601 9.9851 7.78301C10.1101 7.87301 10.2051 7.81801 10.2591 7.75301C10.3831 7.62501 10.3851 7.29601 10.4431 7.23101C10.4831 7.11101 10.5861 7.13101 10.6361 7.18501C10.6861 7.25501 10.7421 7.30001 10.8131 7.33801C10.9291 7.44001 11.0671 7.45801 11.2031 7.36501C11.2961 7.31301 11.3571 7.24501 11.4111 7.11101C11.4711 6.95501 11.4411 6.13501 11.4281 5.67901L11.6881 6.05501C11.7241 6.45501 11.7411 6.85001 11.7281 7.22801C11.7201 7.30301 11.9911 7.00401 11.9881 6.86201C11.9881 6.73901 11.9901 6.62601 11.9881 6.52201C12.1211 6.73201 12.2481 6.94501 12.3681 7.16201C12.4431 7.12201 12.4181 6.69901 12.3711 6.64201C12.2451 6.43001 12.0831 6.20201 11.9581 6.02401C11.9331 5.80101 11.9001 5.53801 11.8841 5.45701C11.8611 5.33101 11.8371 5.14201 11.8011 4.99301C11.7911 4.93601 11.7611 4.75001 11.7711 4.73301C11.7851 4.69001 11.8411 4.73301 11.8681 4.68501C11.9081 4.64001 11.7261 4.16501 11.6331 4.03101C11.6001 3.97101 11.5391 3.99101 11.4651 4.09101C11.3951 4.15501 11.4211 4.30301 11.4471 4.44401C11.5151 4.80401 11.5771 5.16801 11.6251 5.53401C11.5351 5.39901 11.4251 5.23701 11.3171 5.08201L11.3031 5.01201C11.3031 5.00401 11.2891 4.71701 11.2761 4.64901C11.2731 4.62101 11.2661 4.61301 11.2961 4.61701C11.3261 4.64301 11.3301 4.64401 11.3491 4.65301C11.3811 4.65701 11.4091 4.60501 11.3891 4.55601L11.0991 4.02201C11.0891 4.00901 11.0751 3.99701 11.0591 3.99501L11.0641 3.99401ZM2.0941 4.00401C2.0391 4.00201 1.98111 4.03401 2.00411 4.09901C1.99011 4.13401 2.10811 4.25201 2.12911 4.31701C2.14611 4.36401 2.10911 4.51201 2.14911 4.52701C2.18411 4.54201 2.2331 4.42301 2.2511 4.31401C2.2611 4.25401 2.2541 4.04801 2.1141 4.00601C2.1071 4.00401 2.1001 4.00401 2.0921 4.00301L2.0941 4.00401ZM12.3141 4.00401C12.3011 4.00601 12.2861 4.02401 12.2641 4.07401C12.2091 4.16401 12.1901 4.32401 12.2121 4.46401C12.3421 5.35401 12.4421 6.21601 12.4621 7.00401C12.4501 7.08001 12.4461 7.12001 12.4121 7.21401C12.3341 7.31401 12.2481 7.43801 12.1671 7.49801C12.0871 7.55801 11.9151 7.61601 11.8591 7.66001C11.6791 7.76201 11.6791 7.88001 11.8231 7.88501C12.0711 7.85501 12.3651 7.83501 12.5671 7.53001C12.6211 7.44501 12.6851 7.21301 12.6871 7.07001C12.7071 6.24001 12.6771 5.42501 12.5521 4.82401C12.5441 4.76401 12.5181 4.63101 12.5281 4.61401C12.5431 4.57201 12.6241 4.61701 12.6531 4.57001C12.6961 4.52601 12.4431 4.20301 12.3551 4.06501C12.3371 4.03101 12.3251 4.00201 12.3111 4.00501L12.3141 4.00401ZM9.71111 4.01801C9.70111 4.02001 9.68711 4.03601 9.65911 4.07301C9.58911 4.29901 9.5651 4.48301 9.5921 4.62501C9.77211 5.55501 9.9521 6.40001 9.9241 7.28501C10.0081 7.28501 10.1061 7.09201 10.1481 6.90001C10.1711 6.63501 10.1321 6.47401 10.1261 6.32001C10.1191 6.16401 9.95011 4.90401 9.91611 4.78701C9.87411 4.56501 10.0801 4.75701 10.0581 4.62901C9.9861 4.46501 9.8081 4.22901 9.7541 4.08601C9.7341 4.04801 9.7301 4.01301 9.7141 4.01601L9.71111 4.01801ZM3.3771 4.03601C3.3571 4.04001 3.33411 4.05801 3.32711 4.08601C3.32211 4.10601 3.3351 4.13901 3.3171 4.14901C3.3071 4.15901 3.2691 4.15201 3.2711 4.09901C3.2711 4.08101 3.2581 4.06301 3.2511 4.05201C3.2431 4.04801 3.2381 4.04701 3.2241 4.04701C3.2071 4.04701 3.2071 4.05201 3.1981 4.06701C3.1941 4.08101 3.18811 4.09501 3.18811 4.11101C3.18611 4.13101 3.1781 4.13601 3.1651 4.13901C3.1491 4.13901 3.1521 4.14101 3.1401 4.13201C3.1301 4.12501 3.12211 4.12201 3.12211 4.10801C3.12211 4.09301 3.1181 4.06801 3.1141 4.06001C3.1071 4.05001 3.0961 4.04601 3.08411 4.04301C3.01811 4.04301 3.01411 4.12101 3.01711 4.14901C3.01211 4.15501 3.0101 4.28901 3.1001 4.32701C3.2201 4.38501 3.4481 4.36001 3.4401 4.16501C3.4401 4.14801 3.4351 4.09001 3.4331 4.07501C3.42111 4.04501 3.3981 4.03501 3.3761 4.03801L3.3771 4.03601ZM5.00311 4.03801C4.96111 4.04001 4.92311 4.05201 4.89311 4.06801C4.81311 4.14501 4.7931 4.26801 4.8571 4.34501C4.9171 4.37501 4.9801 4.43501 4.93911 4.47001C4.76511 4.65501 4.3121 4.96601 4.2891 5.02301V5.02901H4.29311V5.03101C4.31611 5.04601 4.60011 5.04601 4.6311 5.03101H4.6331C4.7311 4.99401 5.1931 4.46601 5.1931 4.46601C5.1691 4.44601 5.1471 4.43001 5.12311 4.40901C5.09711 4.38701 5.10011 4.36501 5.12311 4.34301C5.23711 4.27701 5.2011 4.13001 5.1411 4.06301C5.0911 4.04101 5.04511 4.03301 5.00311 4.03601V4.03801ZM9.25311 4.03801C9.24111 4.04101 9.2261 4.05801 9.2031 4.10801C9.14811 4.19801 9.1111 4.35301 9.11611 4.49801C9.23411 5.31801 9.2701 6.03501 9.3481 6.85501C9.3541 6.93501 9.3421 7.04901 9.2901 7.09501C9.0941 7.29901 8.8131 7.54901 8.5071 7.66501C8.4741 7.70201 8.58911 7.85901 8.73711 7.85901C8.98511 7.82901 9.2031 7.69101 9.4071 7.32401C9.4601 7.23901 9.55511 7.05601 9.55711 6.91401C9.57711 6.08201 9.5171 5.43401 9.3911 4.83401C9.3841 4.77401 9.3891 4.70401 9.39911 4.68801C9.4151 4.66801 9.4691 4.68801 9.4991 4.64101C9.5411 4.59701 9.3851 4.23801 9.2971 4.10101C9.2791 4.06601 9.2691 4.03801 9.25311 4.03901V4.03801ZM2.6691 4.06501C2.63511 4.06901 2.6031 4.09501 2.5871 4.13501C2.5821 4.26501 2.5811 4.39501 2.5971 4.51701C2.6571 4.73001 2.6741 4.91701 2.7031 5.13401C2.7131 5.42601 2.53511 5.26001 2.54311 5.11601C2.58311 4.92801 2.57311 4.63301 2.53711 4.55801C2.50711 4.48301 2.47511 4.46501 2.40511 4.47801C2.35011 4.47401 2.2071 4.62801 2.1671 4.88801C2.1671 4.88801 2.1331 5.02001 2.1191 5.13801C2.0991 5.27101 2.0111 5.36601 1.9491 5.12001C1.8961 4.94001 1.8641 4.50001 1.7751 4.60201C1.7491 4.94601 1.71911 5.55201 2.01111 5.61401C2.36511 5.64801 2.1691 5.01601 2.2971 4.90101C2.3221 4.84601 2.3671 4.84501 2.3701 4.91601V5.45301C2.3661 5.62701 2.48011 5.67901 2.57011 5.71501C2.66311 5.70801 2.72411 5.71101 2.76011 5.80101L2.8051 6.73101C2.8051 6.73101 3.0191 6.79101 3.0291 6.20801C3.0391 5.86501 2.9591 5.57801 3.0061 5.51101C3.0081 5.44501 3.09211 5.44101 3.1501 5.47401C3.24311 5.53901 3.2841 5.61901 3.4281 5.58701C3.6481 5.52701 3.77811 5.42101 3.78111 5.25301C3.77111 5.09301 3.75111 4.93301 3.68111 4.77301C3.69111 4.74501 3.6411 4.67001 3.6511 4.64101C3.6891 4.70101 3.7491 4.69701 3.76111 4.64101C3.72511 4.51801 3.6671 4.40101 3.5731 4.35101C3.4961 4.28101 3.38311 4.29601 3.3411 4.43801C3.32111 4.60201 3.4011 4.79601 3.5211 4.95501C3.5451 5.01701 3.5811 5.12001 3.5651 5.21301C3.5021 5.24901 3.43911 5.23301 3.38511 5.17801C3.38511 5.17801 3.2121 5.04801 3.2121 5.01801C3.2591 4.72301 3.2221 4.68801 3.1971 4.60801C3.1791 4.49401 3.1251 4.45801 3.0821 4.38001C3.0381 4.33301 2.9791 4.33301 2.95211 4.38001C2.87411 4.51301 2.9101 4.80001 2.9661 4.92701C3.0061 5.04501 3.0681 5.11901 3.0391 5.11901C3.0151 5.18401 2.9651 5.16901 2.9291 5.09201C2.8791 4.93201 2.86711 4.69601 2.86711 4.58901C2.85211 4.45701 2.83511 4.17401 2.74711 4.10201C2.72411 4.07001 2.6971 4.05901 2.6701 4.06201L2.6691 4.06501ZM3.9111 4.06501C3.8941 4.06901 3.8741 4.07901 3.8511 4.08501C3.7761 4.10801 3.7061 4.17301 3.72811 4.29901C3.8181 4.83901 3.87511 5.25201 3.96411 5.79201C3.97711 5.85601 3.9241 5.93901 3.8561 5.93201C3.7401 5.85201 3.7111 5.69201 3.5131 5.70001C3.3691 5.70001 3.2051 5.85801 3.1851 6.00801C3.1611 6.12801 3.1531 6.25801 3.1851 6.36201C3.2851 6.48201 3.4071 6.47001 3.5131 6.44201C3.6001 6.40701 3.67311 6.32201 3.7031 6.34201C3.7231 6.37501 3.70111 6.65601 3.29311 6.87201C3.04111 6.98601 2.8411 7.01201 2.7331 6.80801C2.6671 6.68001 2.7391 6.19201 2.5751 6.30401C2.0891 7.55601 3.71211 7.73001 3.89311 6.35601C3.90511 6.31601 3.9401 6.27801 3.9661 6.28801C3.9761 6.29301 3.9861 6.30801 3.9901 6.33601C3.9521 7.58001 2.7341 7.66601 2.5281 7.27401C2.4761 7.18201 2.4611 6.97601 2.4561 6.85401C2.4461 6.77901 2.4281 6.73601 2.4061 6.71901C2.3561 6.68201 2.2901 6.77901 2.2761 6.94601C2.2561 7.08101 2.26111 7.11801 2.26111 7.24801C2.3271 8.23101 3.8941 7.80801 4.14911 6.99801C4.2751 6.57801 4.14611 6.26101 4.18911 6.22201L4.1921 6.22001H4.19511L4.2001 6.21801C4.3561 6.38601 4.57411 6.23801 4.62211 6.18101C4.64211 6.15101 4.6941 6.13101 4.7301 6.17101C4.8501 6.25701 5.0641 6.21601 5.1081 6.06101C5.1341 5.91101 5.15611 5.75701 5.16111 5.59601C5.08111 5.62101 5.01711 5.63901 4.99111 5.66601C4.98511 5.67301 4.98111 5.68101 4.9791 5.68901L4.95911 5.82201C4.95911 5.82701 4.9571 5.83001 4.9551 5.83201C4.9521 5.83901 4.9451 5.84401 4.9411 5.84701C4.9131 5.86201 4.8641 5.85401 4.8611 5.81301C4.82411 5.64301 4.6691 5.62101 4.5751 5.88601C4.5121 5.93601 4.39511 5.94601 4.38511 5.87001C4.40011 5.69201 4.3281 5.66801 4.1851 5.75201L4.0471 4.71201C4.1071 4.70901 4.1611 4.75201 4.2171 4.68401C4.1571 4.50001 4.0321 4.12601 3.9611 4.09001H3.95911L3.9491 4.08001C3.9491 4.07801 3.9461 4.07701 3.9441 4.07601L3.9401 4.07001C3.93611 4.07001 3.9321 4.06801 3.9301 4.06701C3.9231 4.06501 3.9171 4.06501 3.9101 4.06501H3.9111ZM8.75311 4.06901C8.69111 4.06701 8.62311 4.10601 8.64911 4.18401C8.63311 4.22701 8.7821 4.37101 8.8061 4.44901C8.8491 4.56901 8.7731 4.68601 8.8181 4.70301C8.8601 4.72101 8.9181 4.57801 8.9381 4.44501C8.9641 4.33701 8.8881 4.11701 8.7781 4.07201L8.75311 4.07001V4.06901ZM4.9801 4.20001C5.00811 4.19801 5.04211 4.22401 5.06011 4.26001C5.07711 4.30001 5.0681 4.33701 5.0401 4.34401C5.0101 4.35101 4.9721 4.32601 4.9541 4.28601C4.93611 4.24601 4.9441 4.20901 4.9741 4.20201H4.9801V4.20001ZM11.9771 4.38201C11.9201 4.38001 11.8571 4.42201 11.8831 4.50701C11.8691 4.55301 12.0031 4.70901 12.0261 4.79501C12.0461 4.85501 11.9961 5.05101 12.0361 5.06901C12.0741 5.08901 12.1261 4.93301 12.1461 4.78901C12.1581 4.70901 12.1001 4.43401 12.0011 4.38501C11.9941 4.38301 11.9861 4.38101 11.9781 4.38101L11.9771 4.38201ZM8.10711 4.47801C8.11411 4.50101 8.1191 4.52401 8.1221 4.54801C8.1341 4.59801 8.1441 4.64801 8.15411 4.70001C8.11011 4.63801 8.07411 4.58801 8.05711 4.57001C7.95711 4.45001 8.05911 4.49201 8.10711 4.47801ZM9.0001 4.91601C8.97811 4.92001 8.9571 4.93901 8.9501 4.96901C8.9441 4.98701 8.9581 5.01901 8.9401 5.02901C8.9301 5.03901 8.8901 5.03301 8.8931 4.97901C8.8931 4.96101 8.88011 4.94201 8.87311 4.93201C8.86511 4.92701 8.8601 4.92501 8.8461 4.92501C8.8291 4.92501 8.8291 4.93001 8.8201 4.94501C8.8161 4.95901 8.81011 4.97301 8.81011 4.99001C8.81011 5.01001 8.8021 5.01601 8.78811 5.02001C8.77211 5.02001 8.7751 5.02001 8.7621 5.01301C8.75411 5.00301 8.7451 5.00101 8.7451 4.98701C8.7451 4.97201 8.74211 4.94901 8.73711 4.93901C8.73011 4.92901 8.7201 4.92601 8.7071 4.92201C8.6421 4.92201 8.6371 4.99801 8.6411 5.02601C8.6371 5.03201 8.6341 5.16801 8.7241 5.20601C8.84611 5.26301 9.07411 5.23601 9.06411 5.04201C9.06411 5.02501 9.0591 4.96701 9.0581 4.95201C9.0451 4.92201 9.02211 4.91201 9.00111 4.91501L9.0001 4.91601ZM4.9301 4.95601C4.9161 4.95601 4.89611 4.96001 4.87311 4.97401C4.7661 5.03201 4.72511 5.20401 4.79311 5.30401C4.85311 5.39401 4.9531 5.36101 4.9661 5.36101C5.07111 5.37501 5.13311 5.16501 5.13311 5.16501C5.13311 5.16501 5.1361 5.10501 5.0131 5.21701C4.9591 5.22701 4.9531 5.20701 4.93911 5.17701C4.9271 5.12401 4.9291 5.06701 4.9541 5.01401C4.9661 4.98101 4.9541 4.96001 4.9301 4.95801V4.95601ZM10.6831 4.98301C10.6231 4.98001 10.5601 5.01901 10.5431 5.10001C10.5431 5.14801 10.5651 5.17401 10.5611 5.21801C10.5561 5.24301 10.5311 5.25801 10.4691 5.23001C10.4791 5.22001 10.4291 5.15201 10.4291 5.15201C10.3821 5.12201 10.3191 5.15201 10.2771 5.18001C10.2541 5.22201 10.2371 5.29301 10.2631 5.36501C10.3311 5.49201 10.5661 5.70801 10.6781 5.71001C10.6801 5.59601 10.6911 5.44401 10.6981 5.35001C10.7001 5.31401 10.7081 5.27501 10.7431 5.26601C10.7771 5.25601 10.8361 5.30001 10.8361 5.26301C10.8301 5.19101 10.8161 5.08301 10.7761 5.03301C10.7541 5.00301 10.7191 4.98501 10.6841 4.98301H10.6831ZM5.9201 5.38001L5.9171 5.38301C5.9171 5.38301 5.9151 5.38301 5.9141 5.38501C5.9021 5.39501 5.88811 5.41501 5.85711 5.43501C5.80411 5.49501 5.7951 5.53801 5.7971 5.65801C5.80111 5.67101 5.8971 5.94101 5.9801 6.13001C6.0361 6.32701 6.08711 6.55301 6.05011 6.76601C5.9201 7.04801 5.6601 7.30101 5.4071 7.43901C5.2771 7.47901 5.1671 7.46501 5.1371 7.43701C5.06311 7.38701 5.06211 7.29701 5.06711 7.28301V7.28001C5.27911 7.13201 5.5221 7.01201 5.7121 6.61301C5.76811 6.46001 5.7861 6.36801 5.7301 6.13301C5.7081 6.04301 5.6801 5.97301 5.6201 5.90901H5.6221C5.6581 5.89201 5.75211 5.96101 5.76711 5.91901C5.74411 5.80501 5.6671 5.65401 5.5821 5.57601C5.5061 5.50601 5.42211 5.49901 5.3541 5.56201C5.2761 5.60601 5.2601 5.76201 5.2971 5.89801C5.3391 6.00001 5.4521 6.01801 5.5321 6.22501C5.5341 6.23901 5.5591 6.38001 5.5191 6.43801C5.48511 6.54001 5.06411 6.87201 5.03411 6.89201L5.03111 6.89401L5.02911 6.89601H5.02711H5.0251V6.89301C5.0231 6.88501 5.0251 6.86301 5.0251 6.83001C5.0221 6.76801 5.04811 6.62701 5.0451 6.60201V6.60001C4.9051 6.69001 4.85811 6.96501 4.83311 7.04701C4.48011 7.29001 4.0801 7.47101 3.8491 7.71701C3.7291 7.90701 4.67711 7.50301 4.78711 7.45401L4.7901 7.45701C4.8121 7.48001 4.8131 7.56001 4.8761 7.63301C4.9761 7.76601 5.1841 7.84801 5.3881 7.79701C5.7301 7.67401 5.92811 7.44101 6.12811 7.18201C6.15611 7.14201 6.20111 7.10801 6.2431 7.14001C6.38011 7.44801 6.77811 7.66801 7.29111 7.69001C7.41111 7.54601 7.3541 7.47501 7.3061 7.44501C7.2911 7.43501 7.0511 7.34101 7.0131 7.24801C6.9901 7.16201 7.04711 7.08501 7.16111 7.02801C7.49111 6.98801 7.8151 6.94301 8.1291 6.84201C8.1321 6.73601 8.19411 6.57901 8.2361 6.51001C8.26611 6.46301 8.2831 6.45801 8.2901 6.45201V6.45001H8.2921V6.44701V6.43701L8.2381 6.40501L7.18511 6.40101C7.17211 6.39601 7.1631 6.39101 7.1571 6.38601L7.1551 6.38301C7.1551 6.38301 7.1531 6.38301 7.1531 6.38101C7.1531 6.37901 7.1511 6.37901 7.1511 6.37901V6.38001V6.37801V6.37601V6.37401L7.1531 6.37101C7.1581 6.36501 7.1711 6.35801 7.1861 6.35101C7.4381 6.31801 7.8841 6.24501 7.9141 5.81601C7.9091 5.59201 7.8181 5.44601 7.5441 5.40601C7.3421 5.42101 7.1981 5.61601 7.2211 5.83001C7.2111 5.88701 7.2411 6.00001 7.1811 6.01301C6.7951 6.04901 6.37311 6.29101 6.35911 6.46501H6.35711H6.3551H6.3531C6.3531 6.46701 6.35111 6.46701 6.35011 6.46701H6.3461H6.3441H6.34011C6.3151 6.45901 6.2831 6.41701 6.28811 6.36001C6.27311 6.06001 6.1751 5.72001 6.0231 5.46001C5.9681 5.40501 5.9431 5.38301 5.9291 5.38001H5.9261H5.92311H5.9211H5.9201ZM6.92811 5.53801C6.90811 5.54201 6.88511 5.56001 6.87811 5.59001C6.87311 5.61001 6.8881 5.64201 6.8701 5.65201C6.8601 5.66201 6.8201 5.65601 6.8221 5.60201C6.8221 5.58501 6.8091 5.56601 6.8021 5.55501C6.79411 5.55001 6.7891 5.54901 6.7761 5.54901C6.7591 5.54901 6.7581 5.55301 6.7491 5.56701C6.7441 5.58101 6.73911 5.59701 6.73911 5.61201C6.73711 5.63201 6.7291 5.63801 6.7161 5.64001C6.7001 5.64001 6.7041 5.64301 6.6911 5.63501C6.6831 5.62701 6.67311 5.62301 6.67311 5.60901C6.67311 5.59401 6.67011 5.56901 6.66611 5.55901C6.65911 5.55201 6.6481 5.54901 6.6361 5.54501C6.5691 5.54501 6.56611 5.62001 6.56911 5.64901C6.56411 5.65401 6.5611 5.78901 6.6511 5.82701C6.7711 5.88501 7.06111 5.85101 6.99111 5.66401C6.99111 5.64701 6.9861 5.58901 6.9851 5.57401C6.9721 5.54401 6.9491 5.53401 6.9271 5.53701L6.92811 5.53801ZM10.9931 5.70501H10.9831C10.9831 5.70501 10.4211 6.10501 10.4081 6.11901C10.3521 6.16901 10.3801 6.34201 10.4081 6.32201C10.4481 6.33701 11.0131 5.95401 11.0021 5.90901C11.0271 5.91101 11.0391 5.71201 10.9921 5.70401L10.9931 5.70501ZM7.4591 5.76501C7.4811 5.76201 7.5111 5.77001 7.5391 5.78501C7.5821 5.81101 7.60911 5.84701 7.6041 5.87501V5.87901C7.60211 5.87901 7.60211 5.87901 7.60211 5.88101V5.88301C7.60211 5.88301 7.60011 5.88301 7.60011 5.88501C7.60011 5.88701 7.59711 5.88901 7.59511 5.89101C7.57511 5.91101 7.5291 5.90701 7.4851 5.88101C7.4431 5.85801 7.41811 5.82101 7.4201 5.79501V5.79201L7.42511 5.78201C7.42511 5.78201 7.42511 5.78001 7.4271 5.77901L7.43211 5.77301C7.43911 5.76801 7.4481 5.76301 7.4591 5.76301V5.76501ZM2.5411 5.86501C2.2511 5.87101 1.82411 6.24701 1.81311 6.45501L2.7331 6.01501C2.6831 5.93901 2.7301 5.87101 2.5411 5.86501ZM3.48411 5.99501C3.51211 5.99701 3.5421 6.01101 3.5581 6.05101C3.57211 6.08801 3.5581 6.12601 3.5411 6.14501V6.14801C3.5271 6.16401 3.4851 6.15801 3.4541 6.15801C3.4171 6.15601 3.3991 6.15001 3.3771 6.12001C3.3651 6.08501 3.39711 6.05201 3.41211 6.02801L3.41911 6.01801C3.42911 6.00801 3.4491 6.00001 3.4691 5.99801L3.4821 5.99601L3.48411 5.99501ZM10.8841 6.11201C10.8311 6.11801 10.7821 6.16701 10.8041 6.24501C10.7901 6.29101 10.8741 6.45201 10.8971 6.53701C10.9171 6.59701 10.8711 6.77001 10.9121 6.78701C10.9501 6.80701 11.0491 6.68701 11.0461 6.53301C11.0561 6.45301 11.0181 6.16301 10.9191 6.11501C10.9071 6.11201 10.8951 6.11101 10.8831 6.11201H10.8841ZM4.6001 6.39601C4.5541 6.39901 4.5131 6.42301 4.5321 6.48801C4.5291 6.53401 4.66211 6.59101 4.66911 6.69801C4.6871 6.74401 4.6391 6.88801 4.6791 6.90001C4.7151 6.91501 4.7651 6.80001 4.7841 6.69601C4.7941 6.63801 4.73811 6.43601 4.6441 6.39901C4.6291 6.39501 4.6141 6.39401 4.5991 6.39501L4.6001 6.39601ZM6.4801 6.65201H6.4921C6.6101 6.68401 6.7821 6.68801 6.93211 6.70201C7.05511 6.71201 7.1151 6.80601 7.0021 6.84701C6.8881 6.88501 6.77911 6.91701 6.77911 7.07901C6.79311 7.15901 6.78911 7.20101 6.77711 7.21901C6.77711 7.22201 6.7741 7.22401 6.7731 7.22501C6.7731 7.22501 6.7731 7.22701 6.7711 7.22701V7.22901H6.7681L6.7611 7.23201H6.7561C6.7291 7.23701 6.6901 7.21201 6.66111 7.19601C6.5911 7.14601 6.3961 7.02601 6.3681 6.76601C6.3641 6.70601 6.4081 6.65601 6.4781 6.65101L6.4801 6.65201ZM1.88611 6.85201C1.87911 6.85201 1.86611 6.87401 1.84611 6.89901C1.67211 7.17401 1.6561 7.58501 1.7521 7.70901C1.8021 7.76601 1.8861 7.79201 1.9481 7.77401C2.0581 7.72701 2.1051 7.50601 2.0781 7.42601C2.0431 7.36901 2.01411 7.36001 1.97811 7.40801C1.90111 7.56301 1.8681 7.45601 1.8631 7.36801C1.8511 7.20501 1.86711 7.05301 1.88511 6.93301C1.89511 6.87301 1.89511 6.85001 1.88511 6.85001L1.88611 6.85201ZM7.7831 7.21401C7.7701 7.21401 7.7571 7.21601 7.7431 7.22401C7.74011 7.22401 7.6191 7.30401 7.5801 7.36201C7.5561 7.38001 7.5601 7.39501 7.5661 7.42701C7.58411 7.47001 7.61611 7.45701 7.65411 7.43701C7.70411 7.42901 7.7271 7.46201 7.7241 7.52101C7.70111 7.59601 7.73411 7.62301 7.73411 7.62801C7.73411 7.63201 7.7811 7.67301 7.8371 7.64101C7.9541 7.59601 8.02711 7.55101 8.19211 7.51601C8.23511 7.51601 8.2321 7.40001 8.1641 7.39601C8.0741 7.40001 7.99411 7.40601 7.90411 7.47601C7.84911 7.48801 7.8401 7.45401 7.8271 7.42401C7.8131 7.35001 7.85911 7.29801 7.8491 7.24201C7.8511 7.24501 7.8211 7.21801 7.7821 7.21601L7.7831 7.21401ZM11.5591 7.35401L11.4791 7.36201C11.4431 7.36901 11.4311 7.38501 11.4241 7.42901C11.4271 7.49401 11.4671 7.49101 11.5091 7.51701C11.5331 7.54701 11.5491 7.57501 11.5071 7.62701C11.4671 7.66201 11.4401 7.68201 11.4001 7.71701C11.3831 7.74901 11.3701 7.79701 11.4281 7.81301C11.5331 7.84301 11.7761 7.68501 11.7761 7.68301C11.8161 7.65301 11.8021 7.59601 11.7991 7.59601C11.7751 7.57001 11.7231 7.58601 11.6891 7.58101C11.6721 7.58101 11.6191 7.57301 11.6431 7.52501C11.6651 7.49501 11.6731 7.47801 11.6881 7.44101C11.7031 7.40501 11.6881 7.38101 11.6301 7.36101C11.6001 7.35501 11.5801 7.35301 11.5571 7.35401H11.5591ZM10.1061 11.214C10.3761 11.227 10.6281 11.217 10.8961 11.23C10.9401 11.266 10.9191 11.35 10.8911 11.364L10.8861 11.366H10.8831H10.8791L10.6531 11.36V11.347C10.6311 11.285 10.4811 11.289 10.4451 11.337V11.34C10.4431 11.34 10.4421 11.343 10.4421 11.344L10.4401 11.349V11.361C10.3201 11.376 10.2151 11.357 10.0971 11.353C10.0621 11.31 10.0671 11.233 10.1071 11.213L10.1061 11.214Z" fill="white"/>
</svg>
