<svg width="15" height="15" viewBox="0 0 15 15" fill="none" xmlns="http://www.w3.org/2000/svg">
<g clip-path="url(#clip0_1450_4208)">
<rect width="15" height="15" rx="7.5" fill="white"/>
<path fill-rule="evenodd" clip-rule="evenodd" d="M-3 10H18V15H-3V10Z" fill="#151515"/>
<path fill-rule="evenodd" clip-rule="evenodd" d="M-3 0H18V5H-3V0Z" fill="#AF010D"/>
<path fill-rule="evenodd" clip-rule="evenodd" d="M3.50007 8.75L2.03007 9.523L2.31007 7.886L1.12207 6.726L2.76507 6.489L3.50007 5L4.23507 6.49L5.87807 6.727L4.68807 7.887L4.96807 9.523L3.50007 8.75ZM11.5001 8.75L10.0301 9.523L10.3101 7.886L9.12207 6.726L10.7651 6.489L11.5001 5L12.2351 6.49L13.8781 6.727L12.6881 7.887L12.9681 9.523" fill="#249F58"/>
</g>
<defs>
<clipPath id="clip0_1450_4208">
<rect width="15" height="15" rx="7.5" fill="white"/>
</clipPath>
</defs>
</svg>
