<svg width="15" height="15" viewBox="0 0 15 15" fill="none" xmlns="http://www.w3.org/2000/svg">
<g clip-path="url(#clip0_1450_4323)">
<rect width="15" height="15" rx="7.5" fill="#FFDA2C"/>
<path fill-rule="evenodd" clip-rule="evenodd" d="M-3 12H18V15H-3V12ZM-3 0H18V3H-3V0Z" fill="#4769C1"/>
<path fill-rule="evenodd" clip-rule="evenodd" d="M-3 4H18V11H-3V4Z" fill="#BC0A33"/>
<path fill-rule="evenodd" clip-rule="evenodd" d="M1 8H14V9H1V8ZM3 6H13V7H3V6Z" fill="#FFDA2C"/>
<path fill-rule="evenodd" clip-rule="evenodd" d="M13 6H15V7H13V6Z" fill="#CBCBCB"/>
<path fill-rule="evenodd" clip-rule="evenodd" d="M7.5 10C9.985 10 12 7.5 12 7.5C12 7.5 9.985 5 7.5 5C5.015 5 3 7.5 3 7.5C3 7.5 5.015 10 7.5 10Z" fill="white"/>
<path fill-rule="evenodd" clip-rule="evenodd" d="M7.5 10C8 10 9 7.5 9 7.5C9 7.5 8 5 7.5 5C5.015 5 3 7.5 3 7.5C3 7.5 5.015 10 7.5 10Z" fill="#151515"/>
<path fill-rule="evenodd" clip-rule="evenodd" d="M5 7H6V8H5V7ZM7 7H8V8H7V7Z" fill="#CBCBCB"/>
<path fill-rule="evenodd" clip-rule="evenodd" d="M10 7H11V8H10V7Z" fill="#151515" stroke="#151515"/>
</g>
<defs>
<clipPath id="clip0_1450_4323">
<rect width="15" height="15" rx="7.5" fill="white"/>
</clipPath>
</defs>
</svg>
