<svg width="15" height="15" viewBox="0 0 15 15" fill="none" xmlns="http://www.w3.org/2000/svg">
<g clip-path="url(#clip0_1450_4207)">
<rect width="15" height="15" rx="7.5" fill="white"/>
<path fill-rule="evenodd" clip-rule="evenodd" d="M-3 10H18V15H-3V10Z" fill="#249F58"/>
<path fill-rule="evenodd" clip-rule="evenodd" d="M8.97 7.2C8.99 7.297 9 7.397 9 7.5C9 8.328 8.328 9 7.5 9C6.672 9 6 8.328 6 7.5C6 7.397 6.01 7.297 6.03 7.2C6.17 7.656 6.774 8 7.5 8C8.226 8 8.83 7.656 8.97 7.2ZM7.5 7C7.776 7 8 6.776 8 6.5C8 6.224 7.776 6 7.5 6C7.224 6 7 6.224 7 6.5C7 6.776 7.224 7 7.5 7Z" fill="#FFDA2C"/>
<path fill-rule="evenodd" clip-rule="evenodd" d="M-3 0H18V5H-3V0Z" fill="#AF010D"/>
</g>
<defs>
<clipPath id="clip0_1450_4207">
<rect width="15" height="15" rx="7.5" fill="white"/>
</clipPath>
</defs>
</svg>
