<svg width="15" height="15" viewBox="0 0 15 15" fill="none" xmlns="http://www.w3.org/2000/svg">
<g clip-path="url(#clip0_1450_4196)">
<rect width="15" height="15" rx="7.5" fill="#FFDA2C"/>
<path fill-rule="evenodd" clip-rule="evenodd" d="M-3 0H18V2H-3V0Z" fill="#151515"/>
<path fill-rule="evenodd" clip-rule="evenodd" d="M-3 4H18V7H-3V4Z" fill="#F93939"/>
<path fill-rule="evenodd" clip-rule="evenodd" d="M-3 7H18V10H-3V7Z" fill="#151515"/>
<path d="M7 10C8.65685 10 10 8.65685 10 7C10 5.34315 8.65685 4 7 4C5.34315 4 4 5.34315 4 7C4 8.65685 5.34315 10 7 10Z" fill="white"/>
<path fill-rule="evenodd" clip-rule="evenodd" d="M7.2 4L6.4 7L7.2 9L8 7V10L8.8 7L8 6L7.2 7V4Z" fill="#151515"/>
<rect x="-3" y="12" width="21" height="3" fill="#F93939"/>
</g>
<defs>
<clipPath id="clip0_1450_4196">
<rect width="15" height="15" rx="7.5" fill="white"/>
</clipPath>
</defs>
</svg>
