<svg width="15" height="15" viewBox="0 0 15 15" fill="none" xmlns="http://www.w3.org/2000/svg">
<g clip-path="url(#clip0_1450_4350)">
<path d="M16 0H-1C-2.10457 0 -3 0.89543 -3 2V13C-3 14.1046 -2.10457 15 -1 15H16C17.1046 15 18 14.1046 18 13V2C18 0.89543 17.1046 0 16 0Z" fill="#F93939"/>
<path fill-rule="evenodd" clip-rule="evenodd" d="M7.50007 8.75L6.03007 9.523L6.31007 7.886L5.12207 6.726L6.76507 6.489L7.50007 5L8.23507 6.49L9.87807 6.727L8.68807 7.887L8.96807 9.523" fill="#FFDA2C"/>
<path fill-rule="evenodd" clip-rule="evenodd" d="M-3 0H4V15H-3V0Z" fill="#249F58"/>
<path fill-rule="evenodd" clip-rule="evenodd" d="M11 0H18V15H11V0Z" fill="#FFDA2C"/>
</g>
<defs>
<clipPath id="clip0_1450_4350">
<rect width="15" height="15" rx="7.5" fill="white"/>
</clipPath>
</defs>
</svg>
