<svg width="15" height="15" viewBox="0 0 15 15" fill="none" xmlns="http://www.w3.org/2000/svg">
<circle cx="7.5" cy="7.5" r="7.5" fill="white"/>
<path d="M9.03684 5.96316L5.59487 9.40513C5.43416 9.56584 5.1596 9.52901 5.0625 9.32477C4.8884 8.96651 4.78795 8.56138 4.78795 8.13615C4.78125 6.28794 6.65626 4.70758 7.29242 4.22209C7.4163 4.12834 7.58371 4.12834 7.70425 4.22209C7.99554 4.44307 8.5413 4.90178 9.05358 5.50446C9.16742 5.63839 9.16072 5.83928 9.03684 5.96316Z" fill="black"/>
<path d="M10.2121 8.13951C10.2121 9.63281 8.99666 10.8482 7.50001 10.8482C6.90068 10.8482 6.34152 10.654 5.88951 10.3192C5.72545 10.1987 5.71206 9.95759 5.85603 9.81361L9.22768 6.44196C9.38505 6.2846 9.64956 6.31808 9.7567 6.51228C10.0313 7.01786 10.2154 7.56696 10.2121 8.13951Z" fill="black"/>
</svg>
