<svg width="15" height="15" viewBox="0 0 15 15" fill="none" xmlns="http://www.w3.org/2000/svg">
<g clip-path="url(#clip0_1450_4331)">
<rect width="15" height="15" rx="7.5" fill="#249F58"/>
<path fill-rule="evenodd" clip-rule="evenodd" d="M7 7H-3V8H7V15H8V8H18V7H8V0H7V7Z" fill="#151515"/>
<path fill-rule="evenodd" clip-rule="evenodd" d="M6 6V7H7V0H6V6H-3V7H7V6H6ZM7 7H18V6H6V7H7V6H6V15H7V7Z" fill="#FFDA2C"/>
<path fill-rule="evenodd" clip-rule="evenodd" d="M9 9V8H8V15H9V9H18V8H8V9H9ZM-3 8H10V9H-3V8ZM8 0H9V9H8V0Z" fill="white"/>
<path d="M7.5 11C9.433 11 11 9.433 11 7.5C11 5.567 9.433 4 7.5 4C5.567 4 4 5.567 4 7.5C4 9.433 5.567 11 7.5 11Z" fill="#F93939"/>
<path fill-rule="evenodd" clip-rule="evenodd" d="M6 6H7V7H6V6ZM8 6H9V7H8V6ZM8 8H9V9H8V8ZM6 8H7V9H6V8Z" fill="#0A6A30"/>
<path fill-rule="evenodd" clip-rule="evenodd" d="M7 6H8V8H7V6Z" fill="#955DCC"/>
</g>
<defs>
<clipPath id="clip0_1450_4331">
<rect width="15" height="15" rx="7.5" fill="white"/>
</clipPath>
</defs>
</svg>
