<svg width="15" height="15" viewBox="0 0 15 15" fill="none" xmlns="http://www.w3.org/2000/svg">
<rect width="15" height="15" rx="7.5" fill="white"/>
<g clip-path="url(#clip0_305_125)">
<path fill-rule="evenodd" clip-rule="evenodd" d="M10.6836 4.94318H9.75972L8.29791 6.38926C8.08509 6.59901 7.79828 6.71659 7.49947 6.71659C7.20066 6.71659 6.91385 6.59901 6.70103 6.38926L5.24034 4.94318H4.31574L6.2391 6.84681C6.93586 7.53583 8.0647 7.53583 8.76096 6.84681L10.6836 4.94318ZM4.30399 10.2366H5.22846L6.70213 8.77876C6.91495 8.56901 7.20176 8.45143 7.50057 8.45143C7.79938 8.45143 8.08619 8.56901 8.29901 8.77876L9.77218 10.2366H10.696L8.76094 8.32121C8.06418 7.63219 6.93534 7.63219 6.23908 8.32121L4.30399 10.2366Z" fill="black"/>
</g>
<defs>
<clipPath id="clip0_305_125">
<rect width="6.81818" height="6.81818" fill="white" transform="translate(4.09091 4.09091)"/>
</clipPath>
</defs>
</svg>
