<svg width="38" height="38" viewBox="0 0 38 38" fill="none" xmlns="http://www.w3.org/2000/svg">
<path d="M19 3.16675C10.2758 3.16675 3.16666 10.2759 3.16666 19.0001C3.16666 27.7242 10.2758 34.8334 19 34.8334C27.7242 34.8334 34.8333 27.7242 34.8333 19.0001C34.8333 10.2759 27.7242 3.16675 19 3.16675ZM24.32 22.6417C24.7792 23.1009 24.7792 23.8609 24.32 24.3201C24.0825 24.5576 23.7817 24.6684 23.4808 24.6684C23.18 24.6684 22.8792 24.5576 22.6417 24.3201L19 20.6784L15.3583 24.3201C15.1208 24.5576 14.82 24.6684 14.5192 24.6684C14.2183 24.6684 13.9175 24.5576 13.68 24.3201C13.2208 23.8609 13.2208 23.1009 13.68 22.6417L17.3217 19.0001L13.68 15.3584C13.2208 14.8992 13.2208 14.1392 13.68 13.6801C14.1392 13.2209 14.8992 13.2209 15.3583 13.6801L19 17.3217L22.6417 13.6801C23.1008 13.2209 23.8608 13.2209 24.32 13.6801C24.7792 14.1392 24.7792 14.8992 24.32 15.3584L20.6783 19.0001L24.32 22.6417Z" fill="#2A77D3"/>
</svg>
