<svg width="27" height="27" viewBox="0 0 27 27" fill="none" xmlns="http://www.w3.org/2000/svg">
<path d="M23.3 24.0001C23.12 24.0001 22.94 23.9301 22.81 23.8001L20.95 21.9401C20.68 21.6701 20.68 21.2301 20.95 20.9501C21.22 20.6801 21.66 20.6801 21.94 20.9501L23.8 22.8101C24.07 23.0801 24.07 23.5201 23.8 23.8001C23.66 23.9301 23.48 24.0001 23.3 24.0001Z" fill="#919191"/>
<path d="M6.78246 6.78249C3.07722 10.4877 3.07722 16.5123 6.78246 20.2175C10.4877 23.9228 16.5122 23.9228 20.2175 20.2175C23.9227 16.5123 23.9227 10.4877 20.2175 6.78249C16.5122 3.07725 10.4877 3.07725 6.78246 6.78249ZM16.0809 12.2626L14.8435 13.5L16.0809 14.7374C16.3708 15.0274 16.3708 15.5082 16.0809 15.7981C15.791 16.088 15.3102 16.088 15.0202 15.7981L13.7828 14.5607L12.5454 15.7981C12.2555 16.088 11.7746 16.088 11.4847 15.7981C11.1948 15.5082 11.1948 15.0274 11.4847 14.7374L12.7222 13.5L11.4847 12.2626C11.1948 11.9726 11.1948 11.4918 11.4847 11.2019C11.7746 10.912 12.2555 10.912 12.5454 11.2019L13.7828 12.4393L15.0202 11.2019C15.3102 10.912 15.791 10.912 16.0809 11.2019C16.3708 11.4918 16.3708 11.9726 16.0809 12.2626Z" fill="#919191"/>
</svg>
